<svg xmlns="http://www.w3.org/2000/svg" xmlns:xlink="http://www.w3.org/1999/xlink" width="310" zoomAndPan="magnify" viewBox="0 0 232.5 131.249995" height="175" preserveAspectRatio="xMidYMid meet" version="1.2"><defs><clipPath id="2e30684fbb"><path d="M 64.132812 37 L 110 37 L 110 96 L 64.132812 96 Z M 64.132812 37 "/></clipPath><clipPath id="4266eff349"><path d="M 64.132812 37 L 83 37 L 83 96 L 64.132812 96 Z M 64.132812 37 "/></clipPath><clipPath id="7b8bddc929"><path d="M 97 16.972656 L 140 16.972656 L 140 60 L 97 60 Z M 97 16.972656 "/></clipPath><clipPath id="1cc27955e6"><path d="M 97 16.972656 L 123 16.972656 L 123 60 L 97 60 Z M 97 16.972656 "/></clipPath><clipPath id="2d27b81961"><path d="M 129 66 L 167.789062 66 L 167.789062 81 L 129 81 Z M 129 66 "/></clipPath><clipPath id="3c262ef6f2"><path d="M 129 86 L 167.789062 86 L 167.789062 101 L 129 101 Z M 129 86 "/></clipPath><clipPath id="b746f7f6c4"><path d="M 129 106 L 167.789062 106 L 167.789062 119.882812 L 129 119.882812 Z M 129 106 "/></clipPath><clipPath id="5c50912aae"><path d="M 129 106 L 139 106 L 139 119.882812 L 129 119.882812 Z M 129 106 "/></clipPath></defs><g id="712b9447c6"><path style=" stroke:none;fill-rule:nonzero;fill:#99e6fc;fill-opacity:1;" d="M 147.359375 80.25 L 150.394531 80.25 L 150.394531 86.90625 L 147.359375 86.90625 Z M 147.359375 80.25 "/><path style=" stroke:none;fill-rule:nonzero;fill:#99e6fc;fill-opacity:1;" d="M 147.359375 99.964844 L 150.394531 99.964844 L 150.394531 106.621094 L 147.359375 106.621094 Z M 147.359375 99.964844 "/><path style=" stroke:none;fill-rule:nonzero;fill:#99e6fc;fill-opacity:1;" d="M 148.875 44.175781 C 148.039062 44.175781 147.359375 44.855469 147.359375 45.691406 L 147.359375 48.117188 C 147.359375 48.953125 148.039062 49.632812 148.875 49.632812 C 149.714844 49.632812 150.394531 48.953125 150.394531 48.117188 L 150.394531 45.691406 C 150.394531 44.855469 149.714844 44.175781 148.875 44.175781 Z M 148.875 44.175781 "/><path style=" stroke:none;fill-rule:nonzero;fill:#99e6fc;fill-opacity:1;" d="M 142.738281 36.441406 L 139.730469 36.441406 C 139.773438 36.984375 139.796875 37.53125 139.796875 38.074219 C 139.796875 38.539062 139.78125 39.003906 139.75 39.46875 L 142.738281 39.46875 C 143.578125 39.46875 144.257812 38.792969 144.257812 37.957031 C 144.257812 37.117188 143.578125 36.441406 142.738281 36.441406 Z M 142.738281 36.441406 "/><path style=" stroke:none;fill-rule:nonzero;fill:#99e6fc;fill-opacity:1;" d="M 148.84375 42.160156 C 148.914062 42.160156 148.984375 42.152344 149.054688 42.144531 C 149.886719 42.027344 150.464844 41.261719 150.347656 40.433594 C 150.179688 39.226562 149.550781 38.148438 148.578125 37.398438 C 147.914062 36.890625 146.960938 37.015625 146.453125 37.675781 C 145.941406 38.339844 146.0625 39.292969 146.730469 39.800781 C 147.066406 40.0625 147.285156 40.433594 147.34375 40.851562 C 147.449219 41.609375 148.097656 42.160156 148.84375 42.160156 Z M 148.84375 42.160156 "/><path style=" stroke:none;fill-rule:nonzero;fill:#99e6fc;fill-opacity:1;" d="M 148.875 59.125 C 148.039062 59.125 147.359375 59.804688 147.359375 60.640625 L 147.359375 63.066406 C 147.359375 63.902344 148.039062 64.582031 148.875 64.582031 C 149.714844 64.582031 150.394531 63.902344 150.394531 63.066406 L 150.394531 60.640625 C 150.394531 59.804688 149.714844 59.125 148.875 59.125 Z M 148.875 59.125 "/><path style=" stroke:none;fill-rule:nonzero;fill:#99e6fc;fill-opacity:1;" d="M 148.875 51.652344 C 148.039062 51.652344 147.359375 52.332031 147.359375 53.167969 L 147.359375 55.589844 C 147.359375 56.429688 148.039062 57.105469 148.875 57.105469 C 149.714844 57.105469 150.394531 56.429688 150.394531 55.589844 L 150.394531 53.167969 C 150.394531 52.332031 149.714844 51.652344 148.875 51.652344 Z M 148.875 51.652344 "/><path style=" stroke:none;fill-rule:nonzero;fill:#99e6fc;fill-opacity:1;" d="M 101.457031 111.636719 L 99.03125 111.636719 C 98.191406 111.636719 97.511719 112.316406 97.511719 113.152344 C 97.511719 113.992188 98.191406 114.667969 99.03125 114.667969 L 101.457031 114.667969 C 102.296875 114.667969 102.976562 113.992188 102.976562 113.152344 C 102.976562 112.316406 102.296875 111.636719 101.457031 111.636719 Z M 101.457031 111.636719 "/><path style=" stroke:none;fill-rule:nonzero;fill:#99e6fc;fill-opacity:1;" d="M 93.972656 111.636719 L 93.875 111.636719 C 93.46875 111.636719 93.082031 111.488281 92.785156 111.210938 C 92.167969 110.644531 91.207031 110.683594 90.640625 111.296875 C 90.070312 111.914062 90.109375 112.871094 90.726562 113.4375 C 91.585938 114.230469 92.703125 114.667969 93.875 114.667969 L 93.972656 114.667969 C 94.808594 114.667969 95.488281 113.992188 95.488281 113.152344 C 95.488281 112.316406 94.808594 111.636719 93.972656 111.636719 Z M 93.972656 111.636719 "/><path style=" stroke:none;fill-rule:nonzero;fill:#99e6fc;fill-opacity:1;" d="M 92.265625 107.558594 L 92.265625 105.132812 C 92.265625 104.296875 91.585938 103.621094 90.75 103.621094 C 89.910156 103.621094 89.230469 104.296875 89.230469 105.132812 L 89.230469 107.558594 C 89.230469 108.394531 89.910156 109.074219 90.75 109.074219 C 91.585938 109.074219 92.265625 108.394531 92.265625 107.558594 Z M 92.265625 107.558594 "/><path style=" stroke:none;fill-rule:nonzero;fill:#99e6fc;fill-opacity:1;" d="M 90.75 101.597656 C 91.585938 101.597656 92.265625 100.921875 92.265625 100.085938 L 92.265625 97.660156 C 92.265625 96.824219 91.585938 96.144531 90.75 96.144531 C 89.910156 96.144531 89.230469 96.824219 89.230469 97.660156 L 89.230469 100.085938 C 89.230469 100.921875 89.910156 101.597656 90.75 101.597656 Z M 90.75 101.597656 "/><path style=" stroke:none;fill-rule:nonzero;fill:#99e6fc;fill-opacity:1;" d="M 116.429688 111.636719 L 114.003906 111.636719 C 113.164062 111.636719 112.484375 112.316406 112.484375 113.152344 C 112.484375 113.992188 113.164062 114.667969 114.003906 114.667969 L 116.429688 114.667969 C 117.269531 114.667969 117.949219 113.992188 117.949219 113.152344 C 117.949219 112.316406 117.269531 111.636719 116.429688 111.636719 Z M 116.429688 111.636719 "/><path style=" stroke:none;fill-rule:nonzero;fill:#99e6fc;fill-opacity:1;" d="M 130.199219 111.636719 L 128.972656 111.636719 C 128.136719 111.636719 127.457031 112.316406 127.457031 113.152344 C 127.457031 113.992188 128.136719 114.667969 128.972656 114.667969 L 130.199219 114.667969 Z M 130.199219 111.636719 "/><path style=" stroke:none;fill-rule:nonzero;fill:#99e6fc;fill-opacity:1;" d="M 123.917969 111.636719 L 121.488281 111.636719 C 120.648438 111.636719 119.972656 112.316406 119.972656 113.152344 C 119.972656 113.992188 120.648438 114.667969 121.488281 114.667969 L 123.917969 114.667969 C 124.753906 114.667969 125.433594 113.992188 125.433594 113.152344 C 125.433594 112.316406 124.753906 111.636719 123.917969 111.636719 Z M 123.917969 111.636719 "/><path style=" stroke:none;fill-rule:nonzero;fill:#99e6fc;fill-opacity:1;" d="M 108.945312 111.636719 L 106.515625 111.636719 C 105.679688 111.636719 105 112.316406 105 113.152344 C 105 113.992188 105.679688 114.667969 106.515625 114.667969 L 108.945312 114.667969 C 109.78125 114.667969 110.460938 113.992188 110.460938 113.152344 C 110.460938 112.316406 109.78125 111.636719 108.945312 111.636719 Z M 108.945312 111.636719 "/><g clip-rule="nonzero" clip-path="url(#2e30684fbb)"><path style=" stroke:none;fill-rule:nonzero;fill:#fef1da;fill-opacity:1;" d="M 97.820312 92.953125 C 97.820312 86.324219 103.21875 80.929688 109.859375 80.929688 C 109.871094 80.929688 109.886719 80.933594 109.898438 80.933594 L 109.898438 51.851562 L 107.289062 54.457031 C 107.101562 54.644531 106.847656 54.75 106.578125 54.75 C 106.359375 54.75 106.148438 54.675781 105.976562 54.542969 C 104.636719 53.492188 103.421875 52.285156 102.375 50.945312 C 102.066406 50.554688 102.105469 49.988281 102.460938 49.632812 L 105.5 46.597656 C 105.933594 46.164062 106.03125 45.5 105.742188 44.949219 C 105.328125 44.160156 104.984375 43.328125 104.71875 42.476562 C 104.53125 41.882812 103.992188 41.484375 103.378906 41.484375 L 99.078125 41.484375 C 98.574219 41.484375 98.148438 41.109375 98.089844 40.617188 C 97.984375 39.777344 97.933594 38.921875 97.933594 38.074219 C 97.933594 38.035156 97.9375 37.996094 97.9375 37.957031 L 74.3125 37.957031 C 73.757812 37.957031 73.230469 38.175781 72.835938 38.566406 L 64.777344 46.613281 C 64.386719 47.003906 64.164062 47.535156 64.164062 48.085938 L 64.164062 93.070312 C 64.164062 94.21875 65.097656 95.152344 66.25 95.152344 L 98.023438 95.152344 C 97.890625 94.4375 97.820312 93.703125 97.820312 92.953125 Z M 97.820312 92.953125 "/></g><g clip-rule="nonzero" clip-path="url(#4266eff349)"><path style=" stroke:none;fill-rule:nonzero;fill:#fae2c0;fill-opacity:1;" d="M 72.816406 93.070312 L 72.816406 48.085938 C 72.816406 47.535156 73.035156 47.003906 73.425781 46.613281 L 81.488281 38.566406 C 81.878906 38.175781 82.410156 37.957031 82.960938 37.957031 L 74.3125 37.957031 C 73.757812 37.957031 73.230469 38.175781 72.835938 38.566406 L 64.777344 46.613281 C 64.386719 47.003906 64.164062 47.535156 64.164062 48.085938 L 64.164062 93.070312 C 64.164062 94.21875 65.097656 95.152344 66.25 95.152344 L 74.898438 95.152344 C 73.75 95.152344 72.816406 94.21875 72.816406 93.070312 Z M 72.816406 93.070312 "/></g><path style=" stroke:none;fill-rule:nonzero;fill:#d8aa5e;fill-opacity:1;" d="M 97.871094 54.074219 L 76.191406 54.074219 C 75.355469 54.074219 74.675781 53.394531 74.675781 52.558594 C 74.675781 51.722656 75.355469 51.042969 76.191406 51.042969 L 97.871094 51.042969 C 98.710938 51.042969 99.390625 51.722656 99.390625 52.558594 C 99.390625 53.394531 98.710938 54.074219 97.871094 54.074219 Z M 97.871094 54.074219 "/><path style=" stroke:none;fill-rule:nonzero;fill:#d8aa5e;fill-opacity:1;" d="M 97.871094 61.636719 L 76.191406 61.636719 C 75.355469 61.636719 74.675781 60.957031 74.675781 60.121094 C 74.675781 59.285156 75.355469 58.605469 76.191406 58.605469 L 97.871094 58.605469 C 98.710938 58.605469 99.390625 59.285156 99.390625 60.121094 C 99.390625 60.957031 98.710938 61.636719 97.871094 61.636719 Z M 97.871094 61.636719 "/><path style=" stroke:none;fill-rule:nonzero;fill:#d8aa5e;fill-opacity:1;" d="M 97.871094 69.164062 L 76.191406 69.164062 C 75.355469 69.164062 74.675781 68.488281 74.675781 67.648438 C 74.675781 66.8125 75.355469 66.132812 76.191406 66.132812 L 97.871094 66.132812 C 98.710938 66.132812 99.390625 66.8125 99.390625 67.648438 C 99.390625 68.488281 98.710938 69.164062 97.871094 69.164062 Z M 97.871094 69.164062 "/><path style=" stroke:none;fill-rule:nonzero;fill:#d8aa5e;fill-opacity:1;" d="M 97.871094 76.761719 L 76.191406 76.761719 C 75.355469 76.761719 74.675781 76.082031 74.675781 75.246094 C 74.675781 74.410156 75.355469 73.730469 76.191406 73.730469 L 97.871094 73.730469 C 98.710938 73.730469 99.390625 74.410156 99.390625 75.246094 C 99.390625 76.082031 98.710938 76.761719 97.871094 76.761719 Z M 97.871094 76.761719 "/><path style=" stroke:none;fill-rule:nonzero;fill:#d8aa5e;fill-opacity:1;" d="M 85.910156 84.324219 L 76.191406 84.324219 C 75.355469 84.324219 74.675781 83.644531 74.675781 82.808594 C 74.675781 81.972656 75.355469 81.292969 76.191406 81.292969 L 85.910156 81.292969 C 86.75 81.292969 87.429688 81.972656 87.429688 82.808594 C 87.429688 83.644531 86.75 84.324219 85.910156 84.324219 Z M 85.910156 84.324219 "/><path style=" stroke:none;fill-rule:nonzero;fill:#05e39c;fill-opacity:1;" d="M 122.101562 92.953125 C 122.101562 93.753906 122.019531 94.550781 121.863281 95.335938 C 121.707031 96.125 121.476562 96.890625 121.167969 97.628906 C 120.859375 98.371094 120.484375 99.078125 120.035156 99.742188 C 119.589844 100.410156 119.082031 101.027344 118.515625 101.597656 C 117.945312 102.164062 117.328125 102.671875 116.660156 103.117188 C 115.992188 103.5625 115.285156 103.9375 114.542969 104.246094 C 113.800781 104.550781 113.035156 104.785156 112.246094 104.941406 C 111.457031 105.097656 110.664062 105.175781 109.859375 105.175781 C 109.054688 105.175781 108.257812 105.097656 107.46875 104.941406 C 106.683594 104.785156 105.917969 104.550781 105.175781 104.246094 C 104.429688 103.9375 103.726562 103.5625 103.058594 103.117188 C 102.390625 102.671875 101.769531 102.164062 101.203125 101.597656 C 100.632812 101.027344 100.125 100.410156 99.679688 99.742188 C 99.234375 99.078125 98.855469 98.371094 98.550781 97.628906 C 98.242188 96.890625 98.007812 96.125 97.851562 95.335938 C 97.695312 94.550781 97.617188 93.753906 97.617188 92.953125 C 97.617188 92.148438 97.695312 91.355469 97.851562 90.566406 C 98.007812 89.78125 98.242188 89.015625 98.550781 88.273438 C 98.855469 87.535156 99.234375 86.828125 99.679688 86.160156 C 100.125 85.496094 100.632812 84.878906 101.203125 84.308594 C 101.769531 83.742188 102.390625 83.234375 103.058594 82.789062 C 103.726562 82.34375 104.429688 81.96875 105.175781 81.660156 C 105.917969 81.351562 106.683594 81.121094 107.46875 80.964844 C 108.257812 80.808594 109.054688 80.730469 109.859375 80.730469 C 110.664062 80.730469 111.457031 80.808594 112.246094 80.964844 C 113.035156 81.121094 113.800781 81.351562 114.542969 81.660156 C 115.285156 81.96875 115.992188 82.34375 116.660156 82.789062 C 117.328125 83.234375 117.945312 83.742188 118.515625 84.308594 C 119.082031 84.878906 119.589844 85.496094 120.035156 86.160156 C 120.484375 86.828125 120.859375 87.535156 121.167969 88.273438 C 121.476562 89.015625 121.707031 89.78125 121.863281 90.566406 C 122.019531 91.355469 122.101562 92.148438 122.101562 92.953125 Z M 122.101562 92.953125 "/><path style=" stroke:none;fill-rule:nonzero;fill:#0ed290;fill-opacity:1;" d="M 104.609375 92.953125 C 104.609375 87.414062 108.296875 82.742188 113.355469 81.238281 C 112.246094 80.910156 111.074219 80.730469 109.859375 80.730469 C 103.097656 80.730469 97.617188 86.203125 97.617188 92.953125 C 97.617188 99.703125 103.097656 105.175781 109.859375 105.175781 C 111.074219 105.175781 112.246094 104.996094 113.355469 104.667969 C 108.296875 103.164062 104.609375 98.488281 104.609375 92.953125 Z M 104.609375 92.953125 "/><path style=" stroke:none;fill-rule:nonzero;fill:#ffffff;fill-opacity:1;" d="M 109.082031 97.925781 C 108.691406 97.925781 108.304688 97.777344 108.007812 97.480469 L 103.253906 92.730469 C 102.660156 92.140625 102.660156 91.179688 103.253906 90.589844 C 103.847656 89.996094 104.804688 89.996094 105.398438 90.589844 L 109.082031 94.265625 L 114.320312 89.035156 C 114.910156 88.445312 115.871094 88.445312 116.464844 89.035156 C 117.058594 89.628906 117.058594 90.585938 116.464844 91.179688 L 110.152344 97.480469 C 109.859375 97.777344 109.46875 97.925781 109.082031 97.925781 Z M 109.082031 97.925781 "/><g clip-rule="nonzero" clip-path="url(#7b8bddc929)"><path style=" stroke:none;fill-rule:nonzero;fill:#7ca1b1;fill-opacity:1;" d="M 132.375 29.691406 L 135.414062 26.65625 C 135.839844 26.230469 135.890625 25.550781 135.515625 25.078125 C 134.457031 23.726562 133.234375 22.503906 131.882812 21.445312 C 131.40625 21.074219 130.726562 21.125 130.300781 21.550781 L 127.261719 24.582031 C 126.886719 24.957031 126.3125 25.035156 125.84375 24.789062 C 125.050781 24.371094 124.210938 24.023438 123.335938 23.753906 C 122.832031 23.597656 122.484375 23.136719 122.484375 22.609375 L 122.484375 18.316406 C 122.484375 17.714844 122.035156 17.199219 121.4375 17.125 C 120.59375 17.023438 119.738281 16.972656 118.867188 16.972656 C 117.996094 16.972656 117.136719 17.023438 116.292969 17.125 C 115.695312 17.199219 115.25 17.714844 115.25 18.316406 L 115.25 22.609375 C 115.25 23.136719 114.902344 23.597656 114.394531 23.753906 C 113.523438 24.023438 112.683594 24.371094 111.886719 24.789062 C 111.417969 25.035156 110.84375 24.957031 110.472656 24.582031 L 107.433594 21.550781 C 107.007812 21.125 106.324219 21.074219 105.851562 21.445312 C 104.496094 22.503906 103.273438 23.726562 102.214844 25.078125 C 101.84375 25.550781 101.890625 26.230469 102.316406 26.65625 L 105.355469 29.691406 C 105.730469 30.066406 105.808594 30.636719 105.5625 31.105469 C 105.144531 31.898438 104.796875 32.738281 104.523438 33.609375 C 104.367188 34.113281 103.90625 34.460938 103.378906 34.460938 L 99.078125 34.460938 C 98.476562 34.460938 97.960938 34.90625 97.886719 35.503906 C 97.785156 36.347656 97.730469 37.203125 97.730469 38.074219 C 97.730469 38.941406 97.785156 39.800781 97.886719 40.640625 C 97.960938 41.238281 98.476562 41.683594 99.078125 41.683594 L 103.378906 41.683594 C 103.90625 41.683594 104.367188 42.03125 104.523438 42.539062 C 104.796875 43.410156 105.144531 44.246094 105.5625 45.042969 C 105.808594 45.511719 105.730469 46.082031 105.355469 46.457031 L 102.316406 49.488281 C 101.890625 49.914062 101.84375 50.59375 102.214844 51.070312 C 103.273438 52.421875 104.496094 53.640625 105.851562 54.699219 C 106.324219 55.070312 107.007812 55.023438 107.433594 54.597656 L 110.472656 51.5625 C 110.84375 51.191406 111.417969 51.109375 111.886719 51.355469 C 112.683594 51.773438 113.523438 52.121094 114.394531 52.394531 C 114.898438 52.550781 115.25 53.011719 115.25 53.539062 L 115.25 57.832031 C 115.25 58.433594 115.695312 58.949219 116.292969 59.019531 C 117.136719 59.121094 117.996094 59.175781 118.867188 59.175781 C 119.738281 59.175781 120.59375 59.121094 121.4375 59.019531 C 122.035156 58.949219 122.484375 58.433594 122.484375 57.832031 L 122.484375 53.539062 C 122.484375 53.011719 122.832031 52.550781 123.335938 52.394531 C 124.210938 52.121094 125.050781 51.773438 125.84375 51.355469 C 126.3125 51.109375 126.886719 51.191406 127.261719 51.5625 L 130.300781 54.597656 C 130.726562 55.023438 131.40625 55.070312 131.882812 54.699219 C 133.234375 53.640625 134.457031 52.421875 135.515625 51.070312 C 135.890625 50.59375 135.839844 49.914062 135.414062 49.488281 L 132.375 46.457031 C 132 46.082031 131.921875 45.511719 132.167969 45.042969 C 132.585938 44.246094 132.9375 43.410156 133.207031 42.539062 C 133.363281 42.03125 133.824219 41.683594 134.355469 41.683594 L 138.652344 41.683594 C 139.257812 41.683594 139.769531 41.238281 139.84375 40.640625 C 139.945312 39.800781 140 38.941406 140 38.074219 C 140 37.203125 139.945312 36.347656 139.84375 35.503906 C 139.769531 34.90625 139.257812 34.460938 138.652344 34.460938 L 134.355469 34.460938 C 133.824219 34.460938 133.363281 34.113281 133.207031 33.609375 C 132.9375 32.738281 132.585938 31.898438 132.167969 31.105469 C 131.921875 30.636719 132.003906 30.066406 132.375 29.691406 Z M 132.375 29.691406 "/></g><g clip-rule="nonzero" clip-path="url(#1cc27955e6)"><path style=" stroke:none;fill-rule:nonzero;fill:#678d98;fill-opacity:1;" d="M 115.441406 48.503906 C 111.050781 47.0625 107.871094 42.933594 107.871094 38.074219 C 107.871094 33.214844 111.050781 29.085938 115.441406 27.644531 C 117.304688 25.472656 119.738281 23.800781 122.515625 22.863281 C 122.496094 22.78125 122.484375 22.695312 122.484375 22.609375 L 122.484375 18.316406 C 122.484375 17.714844 122.035156 17.199219 121.4375 17.125 C 120.59375 17.023438 119.738281 16.972656 118.867188 16.972656 C 117.996094 16.972656 117.136719 17.023438 116.292969 17.125 C 115.695312 17.199219 115.25 17.714844 115.25 18.316406 L 115.25 22.609375 C 115.25 23.136719 114.902344 23.597656 114.394531 23.753906 C 113.523438 24.023438 112.683594 24.371094 111.886719 24.789062 C 111.417969 25.035156 110.84375 24.957031 110.472656 24.582031 L 107.433594 21.550781 C 107.007812 21.125 106.324219 21.074219 105.851562 21.445312 C 104.496094 22.503906 103.273438 23.726562 102.214844 25.078125 C 101.84375 25.550781 101.890625 26.230469 102.316406 26.65625 L 105.355469 29.691406 C 105.730469 30.066406 105.808594 30.636719 105.5625 31.105469 C 105.144531 31.898438 104.796875 32.738281 104.523438 33.609375 C 104.367188 34.113281 103.90625 34.460938 103.378906 34.460938 L 99.078125 34.460938 C 98.476562 34.460938 97.960938 34.90625 97.886719 35.503906 C 97.785156 36.347656 97.730469 37.203125 97.730469 38.074219 C 97.730469 38.941406 97.785156 39.800781 97.886719 40.640625 C 97.960938 41.238281 98.476562 41.683594 99.078125 41.683594 L 103.378906 41.683594 C 103.90625 41.683594 104.367188 42.03125 104.523438 42.539062 C 104.796875 43.410156 105.144531 44.246094 105.5625 45.042969 C 105.808594 45.511719 105.730469 46.082031 105.355469 46.457031 L 102.316406 49.488281 C 101.890625 49.914062 101.84375 50.59375 102.214844 51.070312 C 103.273438 52.421875 104.496094 53.640625 105.851562 54.699219 C 106.324219 55.070312 107.007812 55.023438 107.433594 54.597656 L 110.472656 51.5625 C 110.84375 51.191406 111.417969 51.109375 111.886719 51.355469 C 112.683594 51.773438 113.523438 52.121094 114.394531 52.394531 C 114.898438 52.550781 115.25 53.011719 115.25 53.539062 L 115.25 57.832031 C 115.25 58.433594 115.695312 58.949219 116.292969 59.019531 C 117.136719 59.121094 117.996094 59.175781 118.867188 59.175781 C 119.738281 59.175781 120.59375 59.121094 121.4375 59.019531 C 122.035156 58.949219 122.484375 58.433594 122.484375 57.832031 L 122.484375 53.539062 C 122.484375 53.453125 122.496094 53.367188 122.515625 53.285156 C 119.738281 52.347656 117.304688 50.675781 115.441406 48.503906 Z M 115.441406 48.503906 "/></g><path style=" stroke:none;fill-rule:nonzero;fill:#3e5959;fill-opacity:1;" d="M 128.34375 38.074219 C 128.34375 38.695312 128.28125 39.308594 128.160156 39.917969 C 128.039062 40.527344 127.859375 41.121094 127.621094 41.695312 C 127.382812 42.269531 127.089844 42.8125 126.746094 43.332031 C 126.398438 43.847656 126.007812 44.324219 125.566406 44.765625 C 125.125 45.203125 124.648438 45.597656 124.128906 45.941406 C 123.613281 46.285156 123.066406 46.578125 122.492188 46.816406 C 121.917969 47.054688 121.324219 47.234375 120.714844 47.355469 C 120.105469 47.476562 119.488281 47.535156 118.867188 47.535156 C 118.242188 47.535156 117.628906 47.476562 117.015625 47.355469 C 116.40625 47.234375 115.816406 47.054688 115.238281 46.816406 C 114.664062 46.578125 114.117188 46.285156 113.601562 45.941406 C 113.085938 45.597656 112.605469 45.203125 112.164062 44.765625 C 111.726562 44.324219 111.332031 43.847656 110.988281 43.332031 C 110.640625 42.8125 110.347656 42.269531 110.113281 41.695312 C 109.875 41.121094 109.695312 40.527344 109.574219 39.917969 C 109.449219 39.308594 109.390625 38.695312 109.390625 38.074219 C 109.390625 37.453125 109.449219 36.835938 109.574219 36.226562 C 109.695312 35.617188 109.875 35.027344 110.113281 34.453125 C 110.347656 33.878906 110.640625 33.332031 110.988281 32.816406 C 111.332031 32.300781 111.726562 31.824219 112.164062 31.382812 C 112.605469 30.945312 113.085938 30.550781 113.601562 30.207031 C 114.117188 29.859375 114.664062 29.570312 115.238281 29.332031 C 115.816406 29.09375 116.40625 28.914062 117.015625 28.792969 C 117.628906 28.671875 118.242188 28.613281 118.867188 28.613281 C 119.488281 28.613281 120.105469 28.671875 120.714844 28.792969 C 121.324219 28.914062 121.917969 29.09375 122.492188 29.332031 C 123.066406 29.570312 123.613281 29.859375 124.128906 30.207031 C 124.648438 30.550781 125.125 30.945312 125.566406 31.382812 C 126.007812 31.824219 126.398438 32.300781 126.746094 32.816406 C 127.089844 33.332031 127.382812 33.878906 127.621094 34.453125 C 127.859375 35.027344 128.039062 35.617188 128.160156 36.226562 C 128.28125 36.835938 128.34375 37.453125 128.34375 38.074219 Z M 128.34375 38.074219 "/><path style=" stroke:none;fill-rule:nonzero;fill:#384949;fill-opacity:1;" d="M 114.710938 38.074219 C 114.710938 33.769531 117.589844 30.140625 121.527344 28.992188 C 120.683594 28.746094 119.789062 28.613281 118.867188 28.613281 C 113.632812 28.613281 109.390625 32.847656 109.390625 38.074219 C 109.390625 43.300781 113.632812 47.535156 118.867188 47.535156 C 119.789062 47.535156 120.683594 47.402344 121.527344 47.15625 C 117.589844 46.007812 114.710938 42.375 114.710938 38.074219 Z M 114.710938 38.074219 "/><path style=" stroke:none;fill-rule:nonzero;fill:#8ebac5;fill-opacity:1;" d="M 118.867188 49.050781 C 112.804688 49.050781 107.871094 44.125 107.871094 38.074219 C 107.871094 32.019531 112.804688 27.097656 118.867188 27.097656 C 124.925781 27.097656 129.859375 32.019531 129.859375 38.074219 C 129.859375 44.125 124.925781 49.050781 118.867188 49.050781 Z M 118.867188 30.125 C 114.476562 30.125 110.90625 33.691406 110.90625 38.074219 C 110.90625 42.457031 114.476562 46.019531 118.867188 46.019531 C 123.253906 46.019531 126.824219 42.457031 126.824219 38.074219 C 126.824219 33.691406 123.253906 30.125 118.867188 30.125 Z M 118.867188 30.125 "/><path style=" stroke:none;fill-rule:nonzero;fill:#ffffff;fill-opacity:1;" d="M 122.15625 38.074219 C 122.15625 38.507812 122.074219 38.929688 121.90625 39.332031 C 121.738281 39.734375 121.5 40.089844 121.191406 40.398438 C 120.882812 40.703125 120.527344 40.941406 120.125 41.109375 C 119.722656 41.277344 119.300781 41.359375 118.867188 41.359375 C 118.429688 41.359375 118.011719 41.277344 117.605469 41.109375 C 117.203125 40.941406 116.847656 40.703125 116.539062 40.398438 C 116.230469 40.089844 115.992188 39.734375 115.828125 39.332031 C 115.660156 38.929688 115.574219 38.507812 115.574219 38.074219 C 115.574219 37.636719 115.660156 37.21875 115.828125 36.816406 C 115.992188 36.414062 116.230469 36.058594 116.539062 35.75 C 116.847656 35.441406 117.203125 35.207031 117.605469 35.039062 C 118.011719 34.871094 118.429688 34.789062 118.867188 34.789062 C 119.300781 34.789062 119.722656 34.871094 120.125 35.039062 C 120.527344 35.207031 120.882812 35.441406 121.191406 35.75 C 121.5 36.058594 121.738281 36.414062 121.90625 36.816406 C 122.074219 37.21875 122.15625 37.636719 122.15625 38.074219 Z M 122.15625 38.074219 "/><g clip-rule="nonzero" clip-path="url(#2d27b81961)"><path style=" stroke:none;fill-rule:nonzero;fill:#01d0fb;fill-opacity:1;" d="M 166.714844 80.449219 L 131.039062 80.449219 C 130.460938 80.449219 129.996094 79.984375 129.996094 79.410156 L 129.996094 68.027344 C 129.996094 67.453125 130.460938 66.984375 131.039062 66.984375 L 166.714844 66.984375 C 167.289062 66.984375 167.753906 67.453125 167.753906 68.027344 L 167.753906 79.410156 C 167.753906 79.984375 167.289062 80.449219 166.714844 80.449219 Z M 166.714844 80.449219 "/></g><path style=" stroke:none;fill-rule:nonzero;fill:#01c0fa;fill-opacity:1;" d="M 137.011719 79.410156 L 137.011719 68.027344 C 137.011719 67.453125 137.480469 66.984375 138.054688 66.984375 L 131.039062 66.984375 C 130.460938 66.984375 129.996094 67.453125 129.996094 68.027344 L 129.996094 79.410156 C 129.996094 79.984375 130.460938 80.453125 131.039062 80.453125 L 138.054688 80.453125 C 137.480469 80.453125 137.011719 79.984375 137.011719 79.410156 Z M 137.011719 79.410156 "/><path style=" stroke:none;fill-rule:nonzero;fill:#99e6fc;fill-opacity:1;" d="M 160.339844 75.234375 L 137.414062 75.234375 C 136.574219 75.234375 135.894531 74.554688 135.894531 73.71875 C 135.894531 72.882812 136.574219 72.203125 137.414062 72.203125 L 160.339844 72.203125 C 161.175781 72.203125 161.855469 72.882812 161.855469 73.71875 C 161.855469 74.554688 161.175781 75.234375 160.339844 75.234375 Z M 160.339844 75.234375 "/><g clip-rule="nonzero" clip-path="url(#3c262ef6f2)"><path style=" stroke:none;fill-rule:nonzero;fill:#fed402;fill-opacity:1;" d="M 166.714844 100.167969 L 131.039062 100.167969 C 130.460938 100.167969 129.996094 99.703125 129.996094 99.128906 L 129.996094 87.742188 C 129.996094 87.167969 130.460938 86.703125 131.039062 86.703125 L 166.714844 86.703125 C 167.289062 86.703125 167.753906 87.167969 167.753906 87.742188 L 167.753906 99.128906 C 167.753906 99.703125 167.289062 100.167969 166.714844 100.167969 Z M 166.714844 100.167969 "/></g><path style=" stroke:none;fill-rule:nonzero;fill:#fac600;fill-opacity:1;" d="M 137.011719 99.128906 L 137.011719 87.742188 C 137.011719 87.167969 137.480469 86.703125 138.054688 86.703125 L 131.039062 86.703125 C 130.460938 86.703125 129.996094 87.167969 129.996094 87.742188 L 129.996094 99.128906 C 129.996094 99.703125 130.460938 100.167969 131.039062 100.167969 L 138.054688 100.167969 C 137.480469 100.167969 137.011719 99.703125 137.011719 99.128906 Z M 137.011719 99.128906 "/><path style=" stroke:none;fill-rule:nonzero;fill:#c99c56;fill-opacity:1;" d="M 160.339844 94.949219 L 137.414062 94.949219 C 136.574219 94.949219 135.894531 94.273438 135.894531 93.4375 C 135.894531 92.597656 136.574219 91.921875 137.414062 91.921875 L 160.339844 91.921875 C 161.175781 91.921875 161.855469 92.597656 161.855469 93.4375 C 161.855469 94.273438 161.175781 94.949219 160.339844 94.949219 Z M 160.339844 94.949219 "/><g clip-rule="nonzero" clip-path="url(#b746f7f6c4)"><path style=" stroke:none;fill-rule:nonzero;fill:#fd5426;fill-opacity:1;" d="M 166.714844 119.886719 L 131.039062 119.886719 C 130.460938 119.886719 129.996094 119.421875 129.996094 118.84375 L 129.996094 107.460938 C 129.996094 106.886719 130.460938 106.421875 131.039062 106.421875 L 166.714844 106.421875 C 167.289062 106.421875 167.753906 106.886719 167.753906 107.460938 L 167.753906 118.84375 C 167.753906 119.421875 167.289062 119.886719 166.714844 119.886719 Z M 166.714844 119.886719 "/></g><g clip-rule="nonzero" clip-path="url(#5c50912aae)"><path style=" stroke:none;fill-rule:nonzero;fill:#ef4424;fill-opacity:1;" d="M 137.011719 118.84375 L 137.011719 107.460938 C 137.011719 106.886719 137.480469 106.421875 138.054688 106.421875 L 131.039062 106.421875 C 130.460938 106.421875 129.996094 106.886719 129.996094 107.460938 L 129.996094 118.84375 C 129.996094 119.421875 130.460938 119.886719 131.039062 119.886719 L 138.054688 119.886719 C 137.480469 119.886719 137.011719 119.421875 137.011719 118.84375 Z M 137.011719 118.84375 "/></g><path style=" stroke:none;fill-rule:nonzero;fill:#d73d24;fill-opacity:1;" d="M 160.339844 114.667969 L 137.414062 114.667969 C 136.574219 114.667969 135.894531 113.992188 135.894531 113.152344 C 135.894531 112.316406 136.574219 111.636719 137.414062 111.636719 L 160.339844 111.636719 C 161.175781 111.636719 161.855469 112.316406 161.855469 113.152344 C 161.855469 113.992188 161.175781 114.667969 160.339844 114.667969 Z M 160.339844 114.667969 "/><g style="fill:#000000;fill-opacity:0.4;"><g transform="translate(45.882303, 12.001731)"><path style="stroke:none" d="M 0.546875 0 L 0.546875 -4.875 L 3.890625 -4.875 L 3.890625 -4.046875 L 1.53125 -4.046875 L 1.53125 -2.859375 L 3.578125 -2.859375 L 3.578125 -2.046875 L 1.53125 -2.046875 L 1.53125 -0.84375 L 3.921875 -0.828125 L 3.921875 0 Z M 0.546875 0 "/></g></g><g style="fill:#000000;fill-opacity:0.4;"><g transform="translate(50.151283, 12.001731)"><path style="stroke:none" d="M 0.546875 -4.875 C 0.566406 -4.875 0.632812 -4.875 0.75 -4.875 C 0.863281 -4.875 1 -4.875 1.15625 -4.875 C 1.3125 -4.875 1.460938 -4.867188 1.609375 -4.859375 C 1.765625 -4.859375 1.894531 -4.859375 2 -4.859375 C 2.59375 -4.847656 3.070312 -4.742188 3.4375 -4.546875 C 3.8125 -4.347656 4.085938 -4.070312 4.265625 -3.71875 C 4.441406 -3.363281 4.53125 -2.941406 4.53125 -2.453125 C 4.53125 -1.953125 4.4375 -1.515625 4.25 -1.140625 C 4.0625 -0.773438 3.78125 -0.492188 3.40625 -0.296875 C 3.03125 -0.0976562 2.550781 0 1.96875 0 L 0.546875 0 Z M 1.53125 -4.078125 L 1.53125 -0.796875 L 1.984375 -0.796875 C 2.265625 -0.796875 2.519531 -0.847656 2.75 -0.953125 C 2.976562 -1.066406 3.160156 -1.242188 3.296875 -1.484375 C 3.429688 -1.734375 3.5 -2.0625 3.5 -2.46875 C 3.5 -2.84375 3.4375 -3.148438 3.3125 -3.390625 C 3.195312 -3.628906 3.023438 -3.800781 2.796875 -3.90625 C 2.578125 -4.019531 2.3125 -4.078125 2 -4.078125 Z M 1.53125 -4.078125 "/></g></g><g style="fill:#000000;fill-opacity:0.4;"><g transform="translate(54.99552, 12.001731)"><path style="stroke:none" d="M 4.328125 0 L 3.296875 0 L 2.515625 -1.875 L 1.53125 -1.875 L 1.53125 0 L 0.546875 0 L 0.546875 -4.875 L 2.59375 -4.875 C 2.988281 -4.875 3.304688 -4.8125 3.546875 -4.6875 C 3.796875 -4.5625 3.976562 -4.390625 4.09375 -4.171875 C 4.207031 -3.953125 4.265625 -3.703125 4.265625 -3.421875 C 4.265625 -3.160156 4.222656 -2.941406 4.140625 -2.765625 C 4.066406 -2.585938 3.960938 -2.441406 3.828125 -2.328125 C 3.703125 -2.210938 3.566406 -2.117188 3.421875 -2.046875 Z M 2.421875 -2.640625 C 2.679688 -2.640625 2.890625 -2.707031 3.046875 -2.84375 C 3.203125 -2.988281 3.28125 -3.171875 3.28125 -3.390625 C 3.28125 -3.617188 3.203125 -3.796875 3.046875 -3.921875 C 2.898438 -4.054688 2.71875 -4.125 2.5 -4.125 L 1.53125 -4.125 L 1.53125 -2.640625 Z M 2.421875 -2.640625 "/></g></g><g style="fill:#000000;fill-opacity:0.4;"><g transform="translate(61.10463, 12.001731)"><path style="stroke:none" d="M 0.269531 -2.214844 L 5.027344 -2.214844 C 4.738281 -2.003906 4.378906 -1.636719 4.132812 -1.292969 L 4.738281 -0.957031 C 5.203125 -1.546875 5.886719 -2.160156 6.492188 -2.558594 C 5.886719 -2.953125 5.203125 -3.566406 4.738281 -4.160156 L 4.132812 -3.820312 C 4.378906 -3.480469 4.738281 -3.109375 5.027344 -2.898438 L 0.269531 -2.898438 Z M 0.269531 -2.214844 "/></g></g><g style="fill:#ffffff;fill-opacity:1;"><g transform="translate(45.584843, 11.704272)"><path style="stroke:none" d="M 0.546875 0 L 0.546875 -4.875 L 3.890625 -4.875 L 3.890625 -4.046875 L 1.53125 -4.046875 L 1.53125 -2.859375 L 3.578125 -2.859375 L 3.578125 -2.046875 L 1.53125 -2.046875 L 1.53125 -0.84375 L 3.921875 -0.828125 L 3.921875 0 Z M 0.546875 0 "/></g></g><g style="fill:#ffffff;fill-opacity:1;"><g transform="translate(49.853823, 11.704272)"><path style="stroke:none" d="M 0.546875 -4.875 C 0.566406 -4.875 0.632812 -4.875 0.75 -4.875 C 0.863281 -4.875 1 -4.875 1.15625 -4.875 C 1.3125 -4.875 1.460938 -4.867188 1.609375 -4.859375 C 1.765625 -4.859375 1.894531 -4.859375 2 -4.859375 C 2.59375 -4.847656 3.070312 -4.742188 3.4375 -4.546875 C 3.8125 -4.347656 4.085938 -4.070312 4.265625 -3.71875 C 4.441406 -3.363281 4.53125 -2.941406 4.53125 -2.453125 C 4.53125 -1.953125 4.4375 -1.515625 4.25 -1.140625 C 4.0625 -0.773438 3.78125 -0.492188 3.40625 -0.296875 C 3.03125 -0.0976562 2.550781 0 1.96875 0 L 0.546875 0 Z M 1.53125 -4.078125 L 1.53125 -0.796875 L 1.984375 -0.796875 C 2.265625 -0.796875 2.519531 -0.847656 2.75 -0.953125 C 2.976562 -1.066406 3.160156 -1.242188 3.296875 -1.484375 C 3.429688 -1.734375 3.5 -2.0625 3.5 -2.46875 C 3.5 -2.84375 3.4375 -3.148438 3.3125 -3.390625 C 3.195312 -3.628906 3.023438 -3.800781 2.796875 -3.90625 C 2.578125 -4.019531 2.3125 -4.078125 2 -4.078125 Z M 1.53125 -4.078125 "/></g></g><g style="fill:#ffffff;fill-opacity:1;"><g transform="translate(54.698059, 11.704272)"><path style="stroke:none" d="M 4.328125 0 L 3.296875 0 L 2.515625 -1.875 L 1.53125 -1.875 L 1.53125 0 L 0.546875 0 L 0.546875 -4.875 L 2.59375 -4.875 C 2.988281 -4.875 3.304688 -4.8125 3.546875 -4.6875 C 3.796875 -4.5625 3.976562 -4.390625 4.09375 -4.171875 C 4.207031 -3.953125 4.265625 -3.703125 4.265625 -3.421875 C 4.265625 -3.160156 4.222656 -2.941406 4.140625 -2.765625 C 4.066406 -2.585938 3.960938 -2.441406 3.828125 -2.328125 C 3.703125 -2.210938 3.566406 -2.117188 3.421875 -2.046875 Z M 2.421875 -2.640625 C 2.679688 -2.640625 2.890625 -2.707031 3.046875 -2.84375 C 3.203125 -2.988281 3.28125 -3.171875 3.28125 -3.390625 C 3.28125 -3.617188 3.203125 -3.796875 3.046875 -3.921875 C 2.898438 -4.054688 2.71875 -4.125 2.5 -4.125 L 1.53125 -4.125 L 1.53125 -2.640625 Z M 2.421875 -2.640625 "/></g></g><g style="fill:#ffffff;fill-opacity:1;"><g transform="translate(59.380816, 11.704272)"><path style="stroke:none" d=""/></g></g><g style="fill:#ffffff;fill-opacity:1;"><g transform="translate(60.80717, 11.704272)"><path style="stroke:none" d="M 0.269531 -2.214844 L 5.027344 -2.214844 C 4.738281 -2.003906 4.378906 -1.636719 4.132812 -1.292969 L 4.738281 -0.957031 C 5.203125 -1.546875 5.886719 -2.160156 6.492188 -2.558594 C 5.886719 -2.953125 5.203125 -3.566406 4.738281 -4.160156 L 4.132812 -3.820312 C 4.378906 -3.480469 4.738281 -3.109375 5.027344 -2.898438 L 0.269531 -2.898438 Z M 0.269531 -2.214844 "/></g></g><g style="fill:#ffffff;fill-opacity:1;"><g transform="translate(67.536043, 11.704272)"><path style="stroke:none" d=""/></g></g><g style="fill:#ffffff;fill-opacity:1;"><g transform="translate(68.962397, 11.704272)"><path style="stroke:none" d=""/></g></g><g style="fill:#000000;fill-opacity:0.4;"><g transform="translate(70.688816, 12.001731)"><path style="stroke:none" d="M 2.375 0.0625 C 2.132812 0.0625 1.894531 0.0351562 1.65625 -0.015625 C 1.425781 -0.078125 1.21875 -0.171875 1.03125 -0.296875 C 0.84375 -0.421875 0.6875 -0.570312 0.5625 -0.75 C 0.4375 -0.9375 0.363281 -1.148438 0.34375 -1.390625 L 1.34375 -1.390625 C 1.375 -1.242188 1.4375 -1.117188 1.53125 -1.015625 C 1.625 -0.910156 1.742188 -0.832031 1.890625 -0.78125 C 2.035156 -0.726562 2.195312 -0.703125 2.375 -0.703125 C 2.550781 -0.703125 2.710938 -0.722656 2.859375 -0.765625 C 3.003906 -0.816406 3.125 -0.882812 3.21875 -0.96875 C 3.3125 -1.0625 3.359375 -1.175781 3.359375 -1.3125 C 3.359375 -1.4375 3.320312 -1.535156 3.25 -1.609375 C 3.175781 -1.691406 3.078125 -1.757812 2.953125 -1.8125 C 2.828125 -1.863281 2.6875 -1.90625 2.53125 -1.9375 L 1.6875 -2.109375 C 1.320312 -2.171875 1.03125 -2.3125 0.8125 -2.53125 C 0.59375 -2.757812 0.484375 -3.0625 0.484375 -3.4375 C 0.472656 -3.738281 0.550781 -4 0.71875 -4.21875 C 0.882812 -4.445312 1.109375 -4.617188 1.390625 -4.734375 C 1.679688 -4.859375 2 -4.921875 2.34375 -4.921875 C 2.769531 -4.921875 3.125 -4.851562 3.40625 -4.71875 C 3.695312 -4.59375 3.914062 -4.414062 4.0625 -4.1875 C 4.207031 -3.96875 4.285156 -3.722656 4.296875 -3.453125 L 3.3125 -3.453125 C 3.289062 -3.617188 3.238281 -3.753906 3.15625 -3.859375 C 3.070312 -3.960938 2.960938 -4.035156 2.828125 -4.078125 C 2.691406 -4.117188 2.535156 -4.140625 2.359375 -4.140625 C 2.234375 -4.140625 2.117188 -4.125 2.015625 -4.09375 C 1.910156 -4.070312 1.816406 -4.035156 1.734375 -3.984375 C 1.660156 -3.929688 1.601562 -3.867188 1.5625 -3.796875 C 1.53125 -3.722656 1.515625 -3.640625 1.515625 -3.546875 C 1.515625 -3.410156 1.5625 -3.296875 1.65625 -3.203125 C 1.75 -3.117188 1.921875 -3.050781 2.171875 -3 L 3.015625 -2.828125 C 3.316406 -2.765625 3.550781 -2.675781 3.71875 -2.5625 C 3.894531 -2.445312 4.023438 -2.316406 4.109375 -2.171875 C 4.203125 -2.023438 4.265625 -1.878906 4.296875 -1.734375 C 4.328125 -1.585938 4.34375 -1.453125 4.34375 -1.328125 C 4.34375 -1.054688 4.257812 -0.816406 4.09375 -0.609375 C 3.925781 -0.398438 3.695312 -0.234375 3.40625 -0.109375 C 3.113281 0.00390625 2.769531 0.0625 2.375 0.0625 Z M 2.375 0.0625 "/></g></g><g style="fill:#000000;fill-opacity:0.4;"><g transform="translate(75.354757, 12.001731)"><path style="stroke:none" d="M 2.5625 0.0625 C 2.101562 0.0625 1.707031 -0.0351562 1.375 -0.234375 C 1.039062 -0.429688 0.78125 -0.71875 0.59375 -1.09375 C 0.414062 -1.46875 0.328125 -1.910156 0.328125 -2.421875 C 0.328125 -2.941406 0.414062 -3.390625 0.59375 -3.765625 C 0.78125 -4.140625 1.039062 -4.425781 1.375 -4.625 C 1.71875 -4.832031 2.113281 -4.9375 2.5625 -4.9375 C 3.019531 -4.9375 3.414062 -4.832031 3.75 -4.625 C 4.082031 -4.425781 4.335938 -4.140625 4.515625 -3.765625 C 4.703125 -3.390625 4.796875 -2.941406 4.796875 -2.421875 C 4.796875 -1.910156 4.703125 -1.46875 4.515625 -1.09375 C 4.335938 -0.71875 4.082031 -0.429688 3.75 -0.234375 C 3.414062 -0.0351562 3.019531 0.0625 2.5625 0.0625 Z M 2.5625 -0.734375 C 2.800781 -0.734375 3.007812 -0.789062 3.1875 -0.90625 C 3.363281 -1.019531 3.5 -1.195312 3.59375 -1.4375 C 3.6875 -1.6875 3.734375 -2.007812 3.734375 -2.40625 C 3.734375 -2.8125 3.679688 -3.140625 3.578125 -3.390625 C 3.484375 -3.648438 3.347656 -3.835938 3.171875 -3.953125 C 3.003906 -4.066406 2.800781 -4.125 2.5625 -4.125 C 2.332031 -4.125 2.128906 -4.066406 1.953125 -3.953125 C 1.773438 -3.835938 1.640625 -3.648438 1.546875 -3.390625 C 1.453125 -3.140625 1.40625 -2.8125 1.40625 -2.40625 C 1.40625 -2.007812 1.453125 -1.6875 1.546875 -1.4375 C 1.640625 -1.195312 1.773438 -1.019531 1.953125 -0.90625 C 2.128906 -0.789062 2.332031 -0.734375 2.5625 -0.734375 Z M 2.5625 -0.734375 "/></g></g><g style="fill:#000000;fill-opacity:0.4;"><g transform="translate(80.471477, 12.001731)"><path style="stroke:none" d="M 0.1875 0 L 1.921875 -4.875 L 2.96875 -4.875 L 4.703125 0 L 3.734375 0 L 3.328125 -1.125 L 1.578125 -1.125 L 1.171875 0 Z M 1.796875 -1.984375 L 3.09375 -1.984375 L 2.453125 -3.921875 Z M 1.796875 -1.984375 "/></g></g><g style="fill:#000000;fill-opacity:0.4;"><g transform="translate(85.359442, 12.001731)"><path style="stroke:none" d="M 4.328125 0 L 3.296875 0 L 2.515625 -1.875 L 1.53125 -1.875 L 1.53125 0 L 0.546875 0 L 0.546875 -4.875 L 2.59375 -4.875 C 2.988281 -4.875 3.304688 -4.8125 3.546875 -4.6875 C 3.796875 -4.5625 3.976562 -4.390625 4.09375 -4.171875 C 4.207031 -3.953125 4.265625 -3.703125 4.265625 -3.421875 C 4.265625 -3.160156 4.222656 -2.941406 4.140625 -2.765625 C 4.066406 -2.585938 3.960938 -2.441406 3.828125 -2.328125 C 3.703125 -2.210938 3.566406 -2.117188 3.421875 -2.046875 Z M 2.421875 -2.640625 C 2.679688 -2.640625 2.890625 -2.707031 3.046875 -2.84375 C 3.203125 -2.988281 3.28125 -3.171875 3.28125 -3.390625 C 3.28125 -3.617188 3.203125 -3.796875 3.046875 -3.921875 C 2.898438 -4.054688 2.71875 -4.125 2.5 -4.125 L 1.53125 -4.125 L 1.53125 -2.640625 Z M 2.421875 -2.640625 "/></g></g><g style="fill:#000000;fill-opacity:0.4;"><g transform="translate(91.468553, 12.001731)"><path style="stroke:none" d="M 0.269531 -2.214844 L 5.027344 -2.214844 C 4.738281 -2.003906 4.378906 -1.636719 4.132812 -1.292969 L 4.738281 -0.957031 C 5.203125 -1.546875 5.886719 -2.160156 6.492188 -2.558594 C 5.886719 -2.953125 5.203125 -3.566406 4.738281 -4.160156 L 4.132812 -3.820312 C 4.378906 -3.480469 4.738281 -3.109375 5.027344 -2.898438 L 0.269531 -2.898438 Z M 0.269531 -2.214844 "/></g></g><g style="fill:#ffffff;fill-opacity:1;"><g transform="translate(70.391355, 11.704272)"><path style="stroke:none" d="M 2.375 0.0625 C 2.132812 0.0625 1.894531 0.0351562 1.65625 -0.015625 C 1.425781 -0.078125 1.21875 -0.171875 1.03125 -0.296875 C 0.84375 -0.421875 0.6875 -0.570312 0.5625 -0.75 C 0.4375 -0.9375 0.363281 -1.148438 0.34375 -1.390625 L 1.34375 -1.390625 C 1.375 -1.242188 1.4375 -1.117188 1.53125 -1.015625 C 1.625 -0.910156 1.742188 -0.832031 1.890625 -0.78125 C 2.035156 -0.726562 2.195312 -0.703125 2.375 -0.703125 C 2.550781 -0.703125 2.710938 -0.722656 2.859375 -0.765625 C 3.003906 -0.816406 3.125 -0.882812 3.21875 -0.96875 C 3.3125 -1.0625 3.359375 -1.175781 3.359375 -1.3125 C 3.359375 -1.4375 3.320312 -1.535156 3.25 -1.609375 C 3.175781 -1.691406 3.078125 -1.757812 2.953125 -1.8125 C 2.828125 -1.863281 2.6875 -1.90625 2.53125 -1.9375 L 1.6875 -2.109375 C 1.320312 -2.171875 1.03125 -2.3125 0.8125 -2.53125 C 0.59375 -2.757812 0.484375 -3.0625 0.484375 -3.4375 C 0.472656 -3.738281 0.550781 -4 0.71875 -4.21875 C 0.882812 -4.445312 1.109375 -4.617188 1.390625 -4.734375 C 1.679688 -4.859375 2 -4.921875 2.34375 -4.921875 C 2.769531 -4.921875 3.125 -4.851562 3.40625 -4.71875 C 3.695312 -4.59375 3.914062 -4.414062 4.0625 -4.1875 C 4.207031 -3.96875 4.285156 -3.722656 4.296875 -3.453125 L 3.3125 -3.453125 C 3.289062 -3.617188 3.238281 -3.753906 3.15625 -3.859375 C 3.070312 -3.960938 2.960938 -4.035156 2.828125 -4.078125 C 2.691406 -4.117188 2.535156 -4.140625 2.359375 -4.140625 C 2.234375 -4.140625 2.117188 -4.125 2.015625 -4.09375 C 1.910156 -4.070312 1.816406 -4.035156 1.734375 -3.984375 C 1.660156 -3.929688 1.601562 -3.867188 1.5625 -3.796875 C 1.53125 -3.722656 1.515625 -3.640625 1.515625 -3.546875 C 1.515625 -3.410156 1.5625 -3.296875 1.65625 -3.203125 C 1.75 -3.117188 1.921875 -3.050781 2.171875 -3 L 3.015625 -2.828125 C 3.316406 -2.765625 3.550781 -2.675781 3.71875 -2.5625 C 3.894531 -2.445312 4.023438 -2.316406 4.109375 -2.171875 C 4.203125 -2.023438 4.265625 -1.878906 4.296875 -1.734375 C 4.328125 -1.585938 4.34375 -1.453125 4.34375 -1.328125 C 4.34375 -1.054688 4.257812 -0.816406 4.09375 -0.609375 C 3.925781 -0.398438 3.695312 -0.234375 3.40625 -0.109375 C 3.113281 0.00390625 2.769531 0.0625 2.375 0.0625 Z M 2.375 0.0625 "/></g></g><g style="fill:#ffffff;fill-opacity:1;"><g transform="translate(75.057296, 11.704272)"><path style="stroke:none" d="M 2.5625 0.0625 C 2.101562 0.0625 1.707031 -0.0351562 1.375 -0.234375 C 1.039062 -0.429688 0.78125 -0.71875 0.59375 -1.09375 C 0.414062 -1.46875 0.328125 -1.910156 0.328125 -2.421875 C 0.328125 -2.941406 0.414062 -3.390625 0.59375 -3.765625 C 0.78125 -4.140625 1.039062 -4.425781 1.375 -4.625 C 1.71875 -4.832031 2.113281 -4.9375 2.5625 -4.9375 C 3.019531 -4.9375 3.414062 -4.832031 3.75 -4.625 C 4.082031 -4.425781 4.335938 -4.140625 4.515625 -3.765625 C 4.703125 -3.390625 4.796875 -2.941406 4.796875 -2.421875 C 4.796875 -1.910156 4.703125 -1.46875 4.515625 -1.09375 C 4.335938 -0.71875 4.082031 -0.429688 3.75 -0.234375 C 3.414062 -0.0351562 3.019531 0.0625 2.5625 0.0625 Z M 2.5625 -0.734375 C 2.800781 -0.734375 3.007812 -0.789062 3.1875 -0.90625 C 3.363281 -1.019531 3.5 -1.195312 3.59375 -1.4375 C 3.6875 -1.6875 3.734375 -2.007812 3.734375 -2.40625 C 3.734375 -2.8125 3.679688 -3.140625 3.578125 -3.390625 C 3.484375 -3.648438 3.347656 -3.835938 3.171875 -3.953125 C 3.003906 -4.066406 2.800781 -4.125 2.5625 -4.125 C 2.332031 -4.125 2.128906 -4.066406 1.953125 -3.953125 C 1.773438 -3.835938 1.640625 -3.648438 1.546875 -3.390625 C 1.453125 -3.140625 1.40625 -2.8125 1.40625 -2.40625 C 1.40625 -2.007812 1.453125 -1.6875 1.546875 -1.4375 C 1.640625 -1.195312 1.773438 -1.019531 1.953125 -0.90625 C 2.128906 -0.789062 2.332031 -0.734375 2.5625 -0.734375 Z M 2.5625 -0.734375 "/></g></g><g style="fill:#ffffff;fill-opacity:1;"><g transform="translate(80.174017, 11.704272)"><path style="stroke:none" d="M 0.1875 0 L 1.921875 -4.875 L 2.96875 -4.875 L 4.703125 0 L 3.734375 0 L 3.328125 -1.125 L 1.578125 -1.125 L 1.171875 0 Z M 1.796875 -1.984375 L 3.09375 -1.984375 L 2.453125 -3.921875 Z M 1.796875 -1.984375 "/></g></g><g style="fill:#ffffff;fill-opacity:1;"><g transform="translate(85.061982, 11.704272)"><path style="stroke:none" d="M 4.328125 0 L 3.296875 0 L 2.515625 -1.875 L 1.53125 -1.875 L 1.53125 0 L 0.546875 0 L 0.546875 -4.875 L 2.59375 -4.875 C 2.988281 -4.875 3.304688 -4.8125 3.546875 -4.6875 C 3.796875 -4.5625 3.976562 -4.390625 4.09375 -4.171875 C 4.207031 -3.953125 4.265625 -3.703125 4.265625 -3.421875 C 4.265625 -3.160156 4.222656 -2.941406 4.140625 -2.765625 C 4.066406 -2.585938 3.960938 -2.441406 3.828125 -2.328125 C 3.703125 -2.210938 3.566406 -2.117188 3.421875 -2.046875 Z M 2.421875 -2.640625 C 2.679688 -2.640625 2.890625 -2.707031 3.046875 -2.84375 C 3.203125 -2.988281 3.28125 -3.171875 3.28125 -3.390625 C 3.28125 -3.617188 3.203125 -3.796875 3.046875 -3.921875 C 2.898438 -4.054688 2.71875 -4.125 2.5 -4.125 L 1.53125 -4.125 L 1.53125 -2.640625 Z M 2.421875 -2.640625 "/></g></g><g style="fill:#ffffff;fill-opacity:1;"><g transform="translate(89.744738, 11.704272)"><path style="stroke:none" d=""/></g></g><g style="fill:#ffffff;fill-opacity:1;"><g transform="translate(91.171092, 11.704272)"><path style="stroke:none" d="M 0.269531 -2.214844 L 5.027344 -2.214844 C 4.738281 -2.003906 4.378906 -1.636719 4.132812 -1.292969 L 4.738281 -0.957031 C 5.203125 -1.546875 5.886719 -2.160156 6.492188 -2.558594 C 5.886719 -2.953125 5.203125 -3.566406 4.738281 -4.160156 L 4.132812 -3.820312 C 4.378906 -3.480469 4.738281 -3.109375 5.027344 -2.898438 L 0.269531 -2.898438 Z M 0.269531 -2.214844 "/></g></g><g style="fill:#ffffff;fill-opacity:1;"><g transform="translate(97.903316, 11.704272)"><path style="stroke:none" d=""/></g></g><g style="fill:#ffffff;fill-opacity:1;"><g transform="translate(99.329671, 11.704272)"><path style="stroke:none" d=""/></g></g><g style="fill:#000000;fill-opacity:0.4;"><g transform="translate(101.056089, 12.001731)"><path style="stroke:none" d="M 0.546875 0 L 0.546875 -4.875 L 2.34375 -4.875 C 2.695312 -4.875 3.007812 -4.8125 3.28125 -4.6875 C 3.5625 -4.5625 3.785156 -4.378906 3.953125 -4.140625 C 4.117188 -3.898438 4.203125 -3.609375 4.203125 -3.265625 C 4.203125 -2.941406 4.128906 -2.664062 3.984375 -2.4375 C 3.835938 -2.207031 3.632812 -2.03125 3.375 -1.90625 C 3.113281 -1.789062 2.8125 -1.734375 2.46875 -1.734375 L 1.53125 -1.734375 L 1.53125 0 Z M 1.53125 -2.5 L 2.4375 -2.5 C 2.6875 -2.5 2.890625 -2.578125 3.046875 -2.734375 C 3.203125 -2.890625 3.28125 -3.085938 3.28125 -3.328125 C 3.28125 -3.566406 3.195312 -3.753906 3.03125 -3.890625 C 2.863281 -4.035156 2.660156 -4.109375 2.421875 -4.109375 L 1.53125 -4.109375 Z M 1.53125 -2.5 "/></g></g><g style="fill:#000000;fill-opacity:0.4;"><g transform="translate(105.446172, 12.001731)"><path style="stroke:none" d="M 0.546875 -4.875 L 1.53125 -4.875 L 1.53125 -0.828125 L 3.65625 -0.828125 L 3.65625 0 L 0.546875 0 Z M 0.546875 -4.875 "/></g></g><g style="fill:#000000;fill-opacity:0.4;"><g transform="translate(109.331648, 12.001731)"><path style="stroke:none" d="M 0.1875 0 L 1.921875 -4.875 L 2.96875 -4.875 L 4.703125 0 L 3.734375 0 L 3.328125 -1.125 L 1.578125 -1.125 L 1.171875 0 Z M 1.796875 -1.984375 L 3.09375 -1.984375 L 2.453125 -3.921875 Z M 1.796875 -1.984375 "/></g></g><g style="fill:#000000;fill-opacity:0.4;"><g transform="translate(114.219613, 12.001731)"><path style="stroke:none" d="M 4.4375 -4.875 L 2.734375 -2.046875 L 2.734375 0 L 1.75 0 L 1.75 -2.046875 L 0.0625 -4.875 L 1.125 -4.875 L 2.25 -2.890625 L 3.359375 -4.875 Z M 4.4375 -4.875 "/></g></g><g style="fill:#000000;fill-opacity:0.4;"><g transform="translate(118.710617, 12.001731)"><path style="stroke:none" d="M 0.546875 0 L 0.546875 -4.875 L 2.3125 -4.875 C 2.945312 -4.875 3.414062 -4.765625 3.71875 -4.546875 C 4.03125 -4.328125 4.1875 -4.007812 4.1875 -3.59375 C 4.1875 -3.351562 4.125 -3.140625 4 -2.953125 C 3.882812 -2.773438 3.664062 -2.625 3.34375 -2.5 C 3.550781 -2.445312 3.71875 -2.375 3.84375 -2.28125 C 3.96875 -2.195312 4.0625 -2.097656 4.125 -1.984375 C 4.195312 -1.878906 4.242188 -1.769531 4.265625 -1.65625 C 4.296875 -1.539062 4.3125 -1.425781 4.3125 -1.3125 C 4.3125 -0.863281 4.15625 -0.53125 3.84375 -0.3125 C 3.539062 -0.101562 3.054688 0 2.390625 0 Z M 1.53125 -0.765625 L 2.40625 -0.765625 C 2.707031 -0.765625 2.929688 -0.820312 3.078125 -0.9375 C 3.234375 -1.0625 3.3125 -1.222656 3.3125 -1.421875 C 3.3125 -1.566406 3.273438 -1.6875 3.203125 -1.78125 C 3.128906 -1.875 3.023438 -1.945312 2.890625 -2 C 2.765625 -2.050781 2.625 -2.078125 2.46875 -2.078125 L 1.53125 -2.078125 Z M 1.53125 -2.859375 L 2.46875 -2.859375 C 2.5625 -2.859375 2.65625 -2.867188 2.75 -2.890625 C 2.84375 -2.910156 2.925781 -2.945312 3 -3 C 3.070312 -3.050781 3.128906 -3.113281 3.171875 -3.1875 C 3.222656 -3.269531 3.25 -3.363281 3.25 -3.46875 C 3.25 -3.675781 3.164062 -3.832031 3 -3.9375 C 2.84375 -4.050781 2.640625 -4.109375 2.390625 -4.109375 L 1.53125 -4.109375 Z M 1.53125 -2.859375 "/></g></g><g style="fill:#000000;fill-opacity:0.4;"><g transform="translate(123.316, 12.001731)"><path style="stroke:none" d="M 2.5625 0.0625 C 2.101562 0.0625 1.707031 -0.0351562 1.375 -0.234375 C 1.039062 -0.429688 0.78125 -0.71875 0.59375 -1.09375 C 0.414062 -1.46875 0.328125 -1.910156 0.328125 -2.421875 C 0.328125 -2.941406 0.414062 -3.390625 0.59375 -3.765625 C 0.78125 -4.140625 1.039062 -4.425781 1.375 -4.625 C 1.71875 -4.832031 2.113281 -4.9375 2.5625 -4.9375 C 3.019531 -4.9375 3.414062 -4.832031 3.75 -4.625 C 4.082031 -4.425781 4.335938 -4.140625 4.515625 -3.765625 C 4.703125 -3.390625 4.796875 -2.941406 4.796875 -2.421875 C 4.796875 -1.910156 4.703125 -1.46875 4.515625 -1.09375 C 4.335938 -0.71875 4.082031 -0.429688 3.75 -0.234375 C 3.414062 -0.0351562 3.019531 0.0625 2.5625 0.0625 Z M 2.5625 -0.734375 C 2.800781 -0.734375 3.007812 -0.789062 3.1875 -0.90625 C 3.363281 -1.019531 3.5 -1.195312 3.59375 -1.4375 C 3.6875 -1.6875 3.734375 -2.007812 3.734375 -2.40625 C 3.734375 -2.8125 3.679688 -3.140625 3.578125 -3.390625 C 3.484375 -3.648438 3.347656 -3.835938 3.171875 -3.953125 C 3.003906 -4.066406 2.800781 -4.125 2.5625 -4.125 C 2.332031 -4.125 2.128906 -4.066406 1.953125 -3.953125 C 1.773438 -3.835938 1.640625 -3.648438 1.546875 -3.390625 C 1.453125 -3.140625 1.40625 -2.8125 1.40625 -2.40625 C 1.40625 -2.007812 1.453125 -1.6875 1.546875 -1.4375 C 1.640625 -1.195312 1.773438 -1.019531 1.953125 -0.90625 C 2.128906 -0.789062 2.332031 -0.734375 2.5625 -0.734375 Z M 2.5625 -0.734375 "/></g></g><g style="fill:#000000;fill-opacity:0.4;"><g transform="translate(128.43272, 12.001731)"><path style="stroke:none" d="M 2.5625 0.0625 C 2.101562 0.0625 1.707031 -0.0351562 1.375 -0.234375 C 1.039062 -0.429688 0.78125 -0.71875 0.59375 -1.09375 C 0.414062 -1.46875 0.328125 -1.910156 0.328125 -2.421875 C 0.328125 -2.941406 0.414062 -3.390625 0.59375 -3.765625 C 0.78125 -4.140625 1.039062 -4.425781 1.375 -4.625 C 1.71875 -4.832031 2.113281 -4.9375 2.5625 -4.9375 C 3.019531 -4.9375 3.414062 -4.832031 3.75 -4.625 C 4.082031 -4.425781 4.335938 -4.140625 4.515625 -3.765625 C 4.703125 -3.390625 4.796875 -2.941406 4.796875 -2.421875 C 4.796875 -1.910156 4.703125 -1.46875 4.515625 -1.09375 C 4.335938 -0.71875 4.082031 -0.429688 3.75 -0.234375 C 3.414062 -0.0351562 3.019531 0.0625 2.5625 0.0625 Z M 2.5625 -0.734375 C 2.800781 -0.734375 3.007812 -0.789062 3.1875 -0.90625 C 3.363281 -1.019531 3.5 -1.195312 3.59375 -1.4375 C 3.6875 -1.6875 3.734375 -2.007812 3.734375 -2.40625 C 3.734375 -2.8125 3.679688 -3.140625 3.578125 -3.390625 C 3.484375 -3.648438 3.347656 -3.835938 3.171875 -3.953125 C 3.003906 -4.066406 2.800781 -4.125 2.5625 -4.125 C 2.332031 -4.125 2.128906 -4.066406 1.953125 -3.953125 C 1.773438 -3.835938 1.640625 -3.648438 1.546875 -3.390625 C 1.453125 -3.140625 1.40625 -2.8125 1.40625 -2.40625 C 1.40625 -2.007812 1.453125 -1.6875 1.546875 -1.4375 C 1.640625 -1.195312 1.773438 -1.019531 1.953125 -0.90625 C 2.128906 -0.789062 2.332031 -0.734375 2.5625 -0.734375 Z M 2.5625 -0.734375 "/></g></g><g style="fill:#000000;fill-opacity:0.4;"><g transform="translate(133.549441, 12.001731)"><path style="stroke:none" d="M 4.640625 0 L 3.578125 0 L 2.28125 -2.265625 L 1.5625 -1.390625 L 1.5625 0 L 0.546875 0 L 0.546875 -4.875 L 1.5625 -4.875 L 1.5625 -2.640625 L 3.34375 -4.875 L 4.46875 -4.875 L 2.984375 -2.984375 Z M 4.640625 0 "/></g></g><g style="fill:#000000;fill-opacity:0.4;"><g transform="translate(139.799843, 12.001731)"><path style="stroke:none" d="M 0.269531 -2.214844 L 5.027344 -2.214844 C 4.738281 -2.003906 4.378906 -1.636719 4.132812 -1.292969 L 4.738281 -0.957031 C 5.203125 -1.546875 5.886719 -2.160156 6.492188 -2.558594 C 5.886719 -2.953125 5.203125 -3.566406 4.738281 -4.160156 L 4.132812 -3.820312 C 4.378906 -3.480469 4.738281 -3.109375 5.027344 -2.898438 L 0.269531 -2.898438 Z M 0.269531 -2.214844 "/></g></g><g style="fill:#ffffff;fill-opacity:1;"><g transform="translate(100.758629, 11.704272)"><path style="stroke:none" d="M 0.546875 0 L 0.546875 -4.875 L 2.34375 -4.875 C 2.695312 -4.875 3.007812 -4.8125 3.28125 -4.6875 C 3.5625 -4.5625 3.785156 -4.378906 3.953125 -4.140625 C 4.117188 -3.898438 4.203125 -3.609375 4.203125 -3.265625 C 4.203125 -2.941406 4.128906 -2.664062 3.984375 -2.4375 C 3.835938 -2.207031 3.632812 -2.03125 3.375 -1.90625 C 3.113281 -1.789062 2.8125 -1.734375 2.46875 -1.734375 L 1.53125 -1.734375 L 1.53125 0 Z M 1.53125 -2.5 L 2.4375 -2.5 C 2.6875 -2.5 2.890625 -2.578125 3.046875 -2.734375 C 3.203125 -2.890625 3.28125 -3.085938 3.28125 -3.328125 C 3.28125 -3.566406 3.195312 -3.753906 3.03125 -3.890625 C 2.863281 -4.035156 2.660156 -4.109375 2.421875 -4.109375 L 1.53125 -4.109375 Z M 1.53125 -2.5 "/></g></g><g style="fill:#ffffff;fill-opacity:1;"><g transform="translate(105.148712, 11.704272)"><path style="stroke:none" d="M 0.546875 -4.875 L 1.53125 -4.875 L 1.53125 -0.828125 L 3.65625 -0.828125 L 3.65625 0 L 0.546875 0 Z M 0.546875 -4.875 "/></g></g><g style="fill:#ffffff;fill-opacity:1;"><g transform="translate(109.034188, 11.704272)"><path style="stroke:none" d="M 0.1875 0 L 1.921875 -4.875 L 2.96875 -4.875 L 4.703125 0 L 3.734375 0 L 3.328125 -1.125 L 1.578125 -1.125 L 1.171875 0 Z M 1.796875 -1.984375 L 3.09375 -1.984375 L 2.453125 -3.921875 Z M 1.796875 -1.984375 "/></g></g><g style="fill:#ffffff;fill-opacity:1;"><g transform="translate(113.922153, 11.704272)"><path style="stroke:none" d="M 4.4375 -4.875 L 2.734375 -2.046875 L 2.734375 0 L 1.75 0 L 1.75 -2.046875 L 0.0625 -4.875 L 1.125 -4.875 L 2.25 -2.890625 L 3.359375 -4.875 Z M 4.4375 -4.875 "/></g></g><g style="fill:#ffffff;fill-opacity:1;"><g transform="translate(118.413157, 11.704272)"><path style="stroke:none" d="M 0.546875 0 L 0.546875 -4.875 L 2.3125 -4.875 C 2.945312 -4.875 3.414062 -4.765625 3.71875 -4.546875 C 4.03125 -4.328125 4.1875 -4.007812 4.1875 -3.59375 C 4.1875 -3.351562 4.125 -3.140625 4 -2.953125 C 3.882812 -2.773438 3.664062 -2.625 3.34375 -2.5 C 3.550781 -2.445312 3.71875 -2.375 3.84375 -2.28125 C 3.96875 -2.195312 4.0625 -2.097656 4.125 -1.984375 C 4.195312 -1.878906 4.242188 -1.769531 4.265625 -1.65625 C 4.296875 -1.539062 4.3125 -1.425781 4.3125 -1.3125 C 4.3125 -0.863281 4.15625 -0.53125 3.84375 -0.3125 C 3.539062 -0.101562 3.054688 0 2.390625 0 Z M 1.53125 -0.765625 L 2.40625 -0.765625 C 2.707031 -0.765625 2.929688 -0.820312 3.078125 -0.9375 C 3.234375 -1.0625 3.3125 -1.222656 3.3125 -1.421875 C 3.3125 -1.566406 3.273438 -1.6875 3.203125 -1.78125 C 3.128906 -1.875 3.023438 -1.945312 2.890625 -2 C 2.765625 -2.050781 2.625 -2.078125 2.46875 -2.078125 L 1.53125 -2.078125 Z M 1.53125 -2.859375 L 2.46875 -2.859375 C 2.5625 -2.859375 2.65625 -2.867188 2.75 -2.890625 C 2.84375 -2.910156 2.925781 -2.945312 3 -3 C 3.070312 -3.050781 3.128906 -3.113281 3.171875 -3.1875 C 3.222656 -3.269531 3.25 -3.363281 3.25 -3.46875 C 3.25 -3.675781 3.164062 -3.832031 3 -3.9375 C 2.84375 -4.050781 2.640625 -4.109375 2.390625 -4.109375 L 1.53125 -4.109375 Z M 1.53125 -2.859375 "/></g></g><g style="fill:#ffffff;fill-opacity:1;"><g transform="translate(123.018539, 11.704272)"><path style="stroke:none" d="M 2.5625 0.0625 C 2.101562 0.0625 1.707031 -0.0351562 1.375 -0.234375 C 1.039062 -0.429688 0.78125 -0.71875 0.59375 -1.09375 C 0.414062 -1.46875 0.328125 -1.910156 0.328125 -2.421875 C 0.328125 -2.941406 0.414062 -3.390625 0.59375 -3.765625 C 0.78125 -4.140625 1.039062 -4.425781 1.375 -4.625 C 1.71875 -4.832031 2.113281 -4.9375 2.5625 -4.9375 C 3.019531 -4.9375 3.414062 -4.832031 3.75 -4.625 C 4.082031 -4.425781 4.335938 -4.140625 4.515625 -3.765625 C 4.703125 -3.390625 4.796875 -2.941406 4.796875 -2.421875 C 4.796875 -1.910156 4.703125 -1.46875 4.515625 -1.09375 C 4.335938 -0.71875 4.082031 -0.429688 3.75 -0.234375 C 3.414062 -0.0351562 3.019531 0.0625 2.5625 0.0625 Z M 2.5625 -0.734375 C 2.800781 -0.734375 3.007812 -0.789062 3.1875 -0.90625 C 3.363281 -1.019531 3.5 -1.195312 3.59375 -1.4375 C 3.6875 -1.6875 3.734375 -2.007812 3.734375 -2.40625 C 3.734375 -2.8125 3.679688 -3.140625 3.578125 -3.390625 C 3.484375 -3.648438 3.347656 -3.835938 3.171875 -3.953125 C 3.003906 -4.066406 2.800781 -4.125 2.5625 -4.125 C 2.332031 -4.125 2.128906 -4.066406 1.953125 -3.953125 C 1.773438 -3.835938 1.640625 -3.648438 1.546875 -3.390625 C 1.453125 -3.140625 1.40625 -2.8125 1.40625 -2.40625 C 1.40625 -2.007812 1.453125 -1.6875 1.546875 -1.4375 C 1.640625 -1.195312 1.773438 -1.019531 1.953125 -0.90625 C 2.128906 -0.789062 2.332031 -0.734375 2.5625 -0.734375 Z M 2.5625 -0.734375 "/></g></g><g style="fill:#ffffff;fill-opacity:1;"><g transform="translate(128.13526, 11.704272)"><path style="stroke:none" d="M 2.5625 0.0625 C 2.101562 0.0625 1.707031 -0.0351562 1.375 -0.234375 C 1.039062 -0.429688 0.78125 -0.71875 0.59375 -1.09375 C 0.414062 -1.46875 0.328125 -1.910156 0.328125 -2.421875 C 0.328125 -2.941406 0.414062 -3.390625 0.59375 -3.765625 C 0.78125 -4.140625 1.039062 -4.425781 1.375 -4.625 C 1.71875 -4.832031 2.113281 -4.9375 2.5625 -4.9375 C 3.019531 -4.9375 3.414062 -4.832031 3.75 -4.625 C 4.082031 -4.425781 4.335938 -4.140625 4.515625 -3.765625 C 4.703125 -3.390625 4.796875 -2.941406 4.796875 -2.421875 C 4.796875 -1.910156 4.703125 -1.46875 4.515625 -1.09375 C 4.335938 -0.71875 4.082031 -0.429688 3.75 -0.234375 C 3.414062 -0.0351562 3.019531 0.0625 2.5625 0.0625 Z M 2.5625 -0.734375 C 2.800781 -0.734375 3.007812 -0.789062 3.1875 -0.90625 C 3.363281 -1.019531 3.5 -1.195312 3.59375 -1.4375 C 3.6875 -1.6875 3.734375 -2.007812 3.734375 -2.40625 C 3.734375 -2.8125 3.679688 -3.140625 3.578125 -3.390625 C 3.484375 -3.648438 3.347656 -3.835938 3.171875 -3.953125 C 3.003906 -4.066406 2.800781 -4.125 2.5625 -4.125 C 2.332031 -4.125 2.128906 -4.066406 1.953125 -3.953125 C 1.773438 -3.835938 1.640625 -3.648438 1.546875 -3.390625 C 1.453125 -3.140625 1.40625 -2.8125 1.40625 -2.40625 C 1.40625 -2.007812 1.453125 -1.6875 1.546875 -1.4375 C 1.640625 -1.195312 1.773438 -1.019531 1.953125 -0.90625 C 2.128906 -0.789062 2.332031 -0.734375 2.5625 -0.734375 Z M 2.5625 -0.734375 "/></g></g><g style="fill:#ffffff;fill-opacity:1;"><g transform="translate(133.251981, 11.704272)"><path style="stroke:none" d="M 4.640625 0 L 3.578125 0 L 2.28125 -2.265625 L 1.5625 -1.390625 L 1.5625 0 L 0.546875 0 L 0.546875 -4.875 L 1.5625 -4.875 L 1.5625 -2.640625 L 3.34375 -4.875 L 4.46875 -4.875 L 2.984375 -2.984375 Z M 4.640625 0 "/></g></g><g style="fill:#ffffff;fill-opacity:1;"><g transform="translate(138.076028, 11.704272)"><path style="stroke:none" d=""/></g></g><g style="fill:#ffffff;fill-opacity:1;"><g transform="translate(139.502383, 11.704272)"><path style="stroke:none" d="M 0.269531 -2.214844 L 5.027344 -2.214844 C 4.738281 -2.003906 4.378906 -1.636719 4.132812 -1.292969 L 4.738281 -0.957031 C 5.203125 -1.546875 5.886719 -2.160156 6.492188 -2.558594 C 5.886719 -2.953125 5.203125 -3.566406 4.738281 -4.160156 L 4.132812 -3.820312 C 4.378906 -3.480469 4.738281 -3.109375 5.027344 -2.898438 L 0.269531 -2.898438 Z M 0.269531 -2.214844 "/></g></g><g style="fill:#ffffff;fill-opacity:1;"><g transform="translate(146.230665, 11.704272)"><path style="stroke:none" d=""/></g></g><g style="fill:#ffffff;fill-opacity:1;"><g transform="translate(147.65702, 11.704272)"><path style="stroke:none" d=""/></g></g><g style="fill:#000000;fill-opacity:0.4;"><g transform="translate(149.383438, 12.001731)"><path style="stroke:none" d="M 4.328125 0 L 3.296875 0 L 2.515625 -1.875 L 1.53125 -1.875 L 1.53125 0 L 0.546875 0 L 0.546875 -4.875 L 2.59375 -4.875 C 2.988281 -4.875 3.304688 -4.8125 3.546875 -4.6875 C 3.796875 -4.5625 3.976562 -4.390625 4.09375 -4.171875 C 4.207031 -3.953125 4.265625 -3.703125 4.265625 -3.421875 C 4.265625 -3.160156 4.222656 -2.941406 4.140625 -2.765625 C 4.066406 -2.585938 3.960938 -2.441406 3.828125 -2.328125 C 3.703125 -2.210938 3.566406 -2.117188 3.421875 -2.046875 Z M 2.421875 -2.640625 C 2.679688 -2.640625 2.890625 -2.707031 3.046875 -2.84375 C 3.203125 -2.988281 3.28125 -3.171875 3.28125 -3.390625 C 3.28125 -3.617188 3.203125 -3.796875 3.046875 -3.921875 C 2.898438 -4.054688 2.71875 -4.125 2.5 -4.125 L 1.53125 -4.125 L 1.53125 -2.640625 Z M 2.421875 -2.640625 "/></g></g><g style="fill:#000000;fill-opacity:0.4;"><g transform="translate(154.066194, 12.001731)"><path style="stroke:none" d="M 0.546875 0 L 0.546875 -4.875 L 3.890625 -4.875 L 3.890625 -4.046875 L 1.53125 -4.046875 L 1.53125 -2.859375 L 3.578125 -2.859375 L 3.578125 -2.046875 L 1.53125 -2.046875 L 1.53125 -0.84375 L 3.921875 -0.828125 L 3.921875 0 Z M 0.546875 0 "/></g></g><g style="fill:#000000;fill-opacity:0.4;"><g transform="translate(158.335174, 12.001731)"><path style="stroke:none" d="M 2.375 0.0625 C 2.132812 0.0625 1.894531 0.0351562 1.65625 -0.015625 C 1.425781 -0.078125 1.21875 -0.171875 1.03125 -0.296875 C 0.84375 -0.421875 0.6875 -0.570312 0.5625 -0.75 C 0.4375 -0.9375 0.363281 -1.148438 0.34375 -1.390625 L 1.34375 -1.390625 C 1.375 -1.242188 1.4375 -1.117188 1.53125 -1.015625 C 1.625 -0.910156 1.742188 -0.832031 1.890625 -0.78125 C 2.035156 -0.726562 2.195312 -0.703125 2.375 -0.703125 C 2.550781 -0.703125 2.710938 -0.722656 2.859375 -0.765625 C 3.003906 -0.816406 3.125 -0.882812 3.21875 -0.96875 C 3.3125 -1.0625 3.359375 -1.175781 3.359375 -1.3125 C 3.359375 -1.4375 3.320312 -1.535156 3.25 -1.609375 C 3.175781 -1.691406 3.078125 -1.757812 2.953125 -1.8125 C 2.828125 -1.863281 2.6875 -1.90625 2.53125 -1.9375 L 1.6875 -2.109375 C 1.320312 -2.171875 1.03125 -2.3125 0.8125 -2.53125 C 0.59375 -2.757812 0.484375 -3.0625 0.484375 -3.4375 C 0.472656 -3.738281 0.550781 -4 0.71875 -4.21875 C 0.882812 -4.445312 1.109375 -4.617188 1.390625 -4.734375 C 1.679688 -4.859375 2 -4.921875 2.34375 -4.921875 C 2.769531 -4.921875 3.125 -4.851562 3.40625 -4.71875 C 3.695312 -4.59375 3.914062 -4.414062 4.0625 -4.1875 C 4.207031 -3.96875 4.285156 -3.722656 4.296875 -3.453125 L 3.3125 -3.453125 C 3.289062 -3.617188 3.238281 -3.753906 3.15625 -3.859375 C 3.070312 -3.960938 2.960938 -4.035156 2.828125 -4.078125 C 2.691406 -4.117188 2.535156 -4.140625 2.359375 -4.140625 C 2.234375 -4.140625 2.117188 -4.125 2.015625 -4.09375 C 1.910156 -4.070312 1.816406 -4.035156 1.734375 -3.984375 C 1.660156 -3.929688 1.601562 -3.867188 1.5625 -3.796875 C 1.53125 -3.722656 1.515625 -3.640625 1.515625 -3.546875 C 1.515625 -3.410156 1.5625 -3.296875 1.65625 -3.203125 C 1.75 -3.117188 1.921875 -3.050781 2.171875 -3 L 3.015625 -2.828125 C 3.316406 -2.765625 3.550781 -2.675781 3.71875 -2.5625 C 3.894531 -2.445312 4.023438 -2.316406 4.109375 -2.171875 C 4.203125 -2.023438 4.265625 -1.878906 4.296875 -1.734375 C 4.328125 -1.585938 4.34375 -1.453125 4.34375 -1.328125 C 4.34375 -1.054688 4.257812 -0.816406 4.09375 -0.609375 C 3.925781 -0.398438 3.695312 -0.234375 3.40625 -0.109375 C 3.113281 0.00390625 2.769531 0.0625 2.375 0.0625 Z M 2.375 0.0625 "/></g></g><g style="fill:#000000;fill-opacity:0.4;"><g transform="translate(163.001116, 12.001731)"><path style="stroke:none" d="M 0.546875 0 L 0.546875 -4.875 L 2.34375 -4.875 C 2.695312 -4.875 3.007812 -4.8125 3.28125 -4.6875 C 3.5625 -4.5625 3.785156 -4.378906 3.953125 -4.140625 C 4.117188 -3.898438 4.203125 -3.609375 4.203125 -3.265625 C 4.203125 -2.941406 4.128906 -2.664062 3.984375 -2.4375 C 3.835938 -2.207031 3.632812 -2.03125 3.375 -1.90625 C 3.113281 -1.789062 2.8125 -1.734375 2.46875 -1.734375 L 1.53125 -1.734375 L 1.53125 0 Z M 1.53125 -2.5 L 2.4375 -2.5 C 2.6875 -2.5 2.890625 -2.578125 3.046875 -2.734375 C 3.203125 -2.890625 3.28125 -3.085938 3.28125 -3.328125 C 3.28125 -3.566406 3.195312 -3.753906 3.03125 -3.890625 C 2.863281 -4.035156 2.660156 -4.109375 2.421875 -4.109375 L 1.53125 -4.109375 Z M 1.53125 -2.5 "/></g></g><g style="fill:#000000;fill-opacity:0.4;"><g transform="translate(167.391198, 12.001731)"><path style="stroke:none" d="M 2.5625 0.0625 C 2.101562 0.0625 1.707031 -0.0351562 1.375 -0.234375 C 1.039062 -0.429688 0.78125 -0.71875 0.59375 -1.09375 C 0.414062 -1.46875 0.328125 -1.910156 0.328125 -2.421875 C 0.328125 -2.941406 0.414062 -3.390625 0.59375 -3.765625 C 0.78125 -4.140625 1.039062 -4.425781 1.375 -4.625 C 1.71875 -4.832031 2.113281 -4.9375 2.5625 -4.9375 C 3.019531 -4.9375 3.414062 -4.832031 3.75 -4.625 C 4.082031 -4.425781 4.335938 -4.140625 4.515625 -3.765625 C 4.703125 -3.390625 4.796875 -2.941406 4.796875 -2.421875 C 4.796875 -1.910156 4.703125 -1.46875 4.515625 -1.09375 C 4.335938 -0.71875 4.082031 -0.429688 3.75 -0.234375 C 3.414062 -0.0351562 3.019531 0.0625 2.5625 0.0625 Z M 2.5625 -0.734375 C 2.800781 -0.734375 3.007812 -0.789062 3.1875 -0.90625 C 3.363281 -1.019531 3.5 -1.195312 3.59375 -1.4375 C 3.6875 -1.6875 3.734375 -2.007812 3.734375 -2.40625 C 3.734375 -2.8125 3.679688 -3.140625 3.578125 -3.390625 C 3.484375 -3.648438 3.347656 -3.835938 3.171875 -3.953125 C 3.003906 -4.066406 2.800781 -4.125 2.5625 -4.125 C 2.332031 -4.125 2.128906 -4.066406 1.953125 -3.953125 C 1.773438 -3.835938 1.640625 -3.648438 1.546875 -3.390625 C 1.453125 -3.140625 1.40625 -2.8125 1.40625 -2.40625 C 1.40625 -2.007812 1.453125 -1.6875 1.546875 -1.4375 C 1.640625 -1.195312 1.773438 -1.019531 1.953125 -0.90625 C 2.128906 -0.789062 2.332031 -0.734375 2.5625 -0.734375 Z M 2.5625 -0.734375 "/></g></g><g style="fill:#000000;fill-opacity:0.4;"><g transform="translate(172.507919, 12.001731)"><path style="stroke:none" d="M 3.734375 -4.875 L 4.71875 -4.875 L 4.71875 0 L 3.84375 0 L 1.53125 -3.34375 L 1.53125 0 L 0.546875 0 L 0.546875 -4.875 L 1.515625 -4.875 L 3.734375 -1.640625 Z M 3.734375 -4.875 "/></g></g><g style="fill:#000000;fill-opacity:0.4;"><g transform="translate(177.769297, 12.001731)"><path style="stroke:none" d="M 2.375 0.0625 C 2.132812 0.0625 1.894531 0.0351562 1.65625 -0.015625 C 1.425781 -0.078125 1.21875 -0.171875 1.03125 -0.296875 C 0.84375 -0.421875 0.6875 -0.570312 0.5625 -0.75 C 0.4375 -0.9375 0.363281 -1.148438 0.34375 -1.390625 L 1.34375 -1.390625 C 1.375 -1.242188 1.4375 -1.117188 1.53125 -1.015625 C 1.625 -0.910156 1.742188 -0.832031 1.890625 -0.78125 C 2.035156 -0.726562 2.195312 -0.703125 2.375 -0.703125 C 2.550781 -0.703125 2.710938 -0.722656 2.859375 -0.765625 C 3.003906 -0.816406 3.125 -0.882812 3.21875 -0.96875 C 3.3125 -1.0625 3.359375 -1.175781 3.359375 -1.3125 C 3.359375 -1.4375 3.320312 -1.535156 3.25 -1.609375 C 3.175781 -1.691406 3.078125 -1.757812 2.953125 -1.8125 C 2.828125 -1.863281 2.6875 -1.90625 2.53125 -1.9375 L 1.6875 -2.109375 C 1.320312 -2.171875 1.03125 -2.3125 0.8125 -2.53125 C 0.59375 -2.757812 0.484375 -3.0625 0.484375 -3.4375 C 0.472656 -3.738281 0.550781 -4 0.71875 -4.21875 C 0.882812 -4.445312 1.109375 -4.617188 1.390625 -4.734375 C 1.679688 -4.859375 2 -4.921875 2.34375 -4.921875 C 2.769531 -4.921875 3.125 -4.851562 3.40625 -4.71875 C 3.695312 -4.59375 3.914062 -4.414062 4.0625 -4.1875 C 4.207031 -3.96875 4.285156 -3.722656 4.296875 -3.453125 L 3.3125 -3.453125 C 3.289062 -3.617188 3.238281 -3.753906 3.15625 -3.859375 C 3.070312 -3.960938 2.960938 -4.035156 2.828125 -4.078125 C 2.691406 -4.117188 2.535156 -4.140625 2.359375 -4.140625 C 2.234375 -4.140625 2.117188 -4.125 2.015625 -4.09375 C 1.910156 -4.070312 1.816406 -4.035156 1.734375 -3.984375 C 1.660156 -3.929688 1.601562 -3.867188 1.5625 -3.796875 C 1.53125 -3.722656 1.515625 -3.640625 1.515625 -3.546875 C 1.515625 -3.410156 1.5625 -3.296875 1.65625 -3.203125 C 1.75 -3.117188 1.921875 -3.050781 2.171875 -3 L 3.015625 -2.828125 C 3.316406 -2.765625 3.550781 -2.675781 3.71875 -2.5625 C 3.894531 -2.445312 4.023438 -2.316406 4.109375 -2.171875 C 4.203125 -2.023438 4.265625 -1.878906 4.296875 -1.734375 C 4.328125 -1.585938 4.34375 -1.453125 4.34375 -1.328125 C 4.34375 -1.054688 4.257812 -0.816406 4.09375 -0.609375 C 3.925781 -0.398438 3.695312 -0.234375 3.40625 -0.109375 C 3.113281 0.00390625 2.769531 0.0625 2.375 0.0625 Z M 2.375 0.0625 "/></g></g><g style="fill:#000000;fill-opacity:0.4;"><g transform="translate(182.435238, 12.001731)"><path style="stroke:none" d="M 0.546875 0 L 0.546875 -4.875 L 3.890625 -4.875 L 3.890625 -4.046875 L 1.53125 -4.046875 L 1.53125 -2.859375 L 3.578125 -2.859375 L 3.578125 -2.046875 L 1.53125 -2.046875 L 1.53125 -0.84375 L 3.921875 -0.828125 L 3.921875 0 Z M 0.546875 0 "/></g></g><g style="fill:#ffffff;fill-opacity:1;"><g transform="translate(149.085978, 11.704272)"><path style="stroke:none" d="M 4.328125 0 L 3.296875 0 L 2.515625 -1.875 L 1.53125 -1.875 L 1.53125 0 L 0.546875 0 L 0.546875 -4.875 L 2.59375 -4.875 C 2.988281 -4.875 3.304688 -4.8125 3.546875 -4.6875 C 3.796875 -4.5625 3.976562 -4.390625 4.09375 -4.171875 C 4.207031 -3.953125 4.265625 -3.703125 4.265625 -3.421875 C 4.265625 -3.160156 4.222656 -2.941406 4.140625 -2.765625 C 4.066406 -2.585938 3.960938 -2.441406 3.828125 -2.328125 C 3.703125 -2.210938 3.566406 -2.117188 3.421875 -2.046875 Z M 2.421875 -2.640625 C 2.679688 -2.640625 2.890625 -2.707031 3.046875 -2.84375 C 3.203125 -2.988281 3.28125 -3.171875 3.28125 -3.390625 C 3.28125 -3.617188 3.203125 -3.796875 3.046875 -3.921875 C 2.898438 -4.054688 2.71875 -4.125 2.5 -4.125 L 1.53125 -4.125 L 1.53125 -2.640625 Z M 2.421875 -2.640625 "/></g></g><g style="fill:#ffffff;fill-opacity:1;"><g transform="translate(153.768734, 11.704272)"><path style="stroke:none" d="M 0.546875 0 L 0.546875 -4.875 L 3.890625 -4.875 L 3.890625 -4.046875 L 1.53125 -4.046875 L 1.53125 -2.859375 L 3.578125 -2.859375 L 3.578125 -2.046875 L 1.53125 -2.046875 L 1.53125 -0.84375 L 3.921875 -0.828125 L 3.921875 0 Z M 0.546875 0 "/></g></g><g style="fill:#ffffff;fill-opacity:1;"><g transform="translate(158.037714, 11.704272)"><path style="stroke:none" d="M 2.375 0.0625 C 2.132812 0.0625 1.894531 0.0351562 1.65625 -0.015625 C 1.425781 -0.078125 1.21875 -0.171875 1.03125 -0.296875 C 0.84375 -0.421875 0.6875 -0.570312 0.5625 -0.75 C 0.4375 -0.9375 0.363281 -1.148438 0.34375 -1.390625 L 1.34375 -1.390625 C 1.375 -1.242188 1.4375 -1.117188 1.53125 -1.015625 C 1.625 -0.910156 1.742188 -0.832031 1.890625 -0.78125 C 2.035156 -0.726562 2.195312 -0.703125 2.375 -0.703125 C 2.550781 -0.703125 2.710938 -0.722656 2.859375 -0.765625 C 3.003906 -0.816406 3.125 -0.882812 3.21875 -0.96875 C 3.3125 -1.0625 3.359375 -1.175781 3.359375 -1.3125 C 3.359375 -1.4375 3.320312 -1.535156 3.25 -1.609375 C 3.175781 -1.691406 3.078125 -1.757812 2.953125 -1.8125 C 2.828125 -1.863281 2.6875 -1.90625 2.53125 -1.9375 L 1.6875 -2.109375 C 1.320312 -2.171875 1.03125 -2.3125 0.8125 -2.53125 C 0.59375 -2.757812 0.484375 -3.0625 0.484375 -3.4375 C 0.472656 -3.738281 0.550781 -4 0.71875 -4.21875 C 0.882812 -4.445312 1.109375 -4.617188 1.390625 -4.734375 C 1.679688 -4.859375 2 -4.921875 2.34375 -4.921875 C 2.769531 -4.921875 3.125 -4.851562 3.40625 -4.71875 C 3.695312 -4.59375 3.914062 -4.414062 4.0625 -4.1875 C 4.207031 -3.96875 4.285156 -3.722656 4.296875 -3.453125 L 3.3125 -3.453125 C 3.289062 -3.617188 3.238281 -3.753906 3.15625 -3.859375 C 3.070312 -3.960938 2.960938 -4.035156 2.828125 -4.078125 C 2.691406 -4.117188 2.535156 -4.140625 2.359375 -4.140625 C 2.234375 -4.140625 2.117188 -4.125 2.015625 -4.09375 C 1.910156 -4.070312 1.816406 -4.035156 1.734375 -3.984375 C 1.660156 -3.929688 1.601562 -3.867188 1.5625 -3.796875 C 1.53125 -3.722656 1.515625 -3.640625 1.515625 -3.546875 C 1.515625 -3.410156 1.5625 -3.296875 1.65625 -3.203125 C 1.75 -3.117188 1.921875 -3.050781 2.171875 -3 L 3.015625 -2.828125 C 3.316406 -2.765625 3.550781 -2.675781 3.71875 -2.5625 C 3.894531 -2.445312 4.023438 -2.316406 4.109375 -2.171875 C 4.203125 -2.023438 4.265625 -1.878906 4.296875 -1.734375 C 4.328125 -1.585938 4.34375 -1.453125 4.34375 -1.328125 C 4.34375 -1.054688 4.257812 -0.816406 4.09375 -0.609375 C 3.925781 -0.398438 3.695312 -0.234375 3.40625 -0.109375 C 3.113281 0.00390625 2.769531 0.0625 2.375 0.0625 Z M 2.375 0.0625 "/></g></g><g style="fill:#ffffff;fill-opacity:1;"><g transform="translate(162.703655, 11.704272)"><path style="stroke:none" d="M 0.546875 0 L 0.546875 -4.875 L 2.34375 -4.875 C 2.695312 -4.875 3.007812 -4.8125 3.28125 -4.6875 C 3.5625 -4.5625 3.785156 -4.378906 3.953125 -4.140625 C 4.117188 -3.898438 4.203125 -3.609375 4.203125 -3.265625 C 4.203125 -2.941406 4.128906 -2.664062 3.984375 -2.4375 C 3.835938 -2.207031 3.632812 -2.03125 3.375 -1.90625 C 3.113281 -1.789062 2.8125 -1.734375 2.46875 -1.734375 L 1.53125 -1.734375 L 1.53125 0 Z M 1.53125 -2.5 L 2.4375 -2.5 C 2.6875 -2.5 2.890625 -2.578125 3.046875 -2.734375 C 3.203125 -2.890625 3.28125 -3.085938 3.28125 -3.328125 C 3.28125 -3.566406 3.195312 -3.753906 3.03125 -3.890625 C 2.863281 -4.035156 2.660156 -4.109375 2.421875 -4.109375 L 1.53125 -4.109375 Z M 1.53125 -2.5 "/></g></g><g style="fill:#ffffff;fill-opacity:1;"><g transform="translate(167.093738, 11.704272)"><path style="stroke:none" d="M 2.5625 0.0625 C 2.101562 0.0625 1.707031 -0.0351562 1.375 -0.234375 C 1.039062 -0.429688 0.78125 -0.71875 0.59375 -1.09375 C 0.414062 -1.46875 0.328125 -1.910156 0.328125 -2.421875 C 0.328125 -2.941406 0.414062 -3.390625 0.59375 -3.765625 C 0.78125 -4.140625 1.039062 -4.425781 1.375 -4.625 C 1.71875 -4.832031 2.113281 -4.9375 2.5625 -4.9375 C 3.019531 -4.9375 3.414062 -4.832031 3.75 -4.625 C 4.082031 -4.425781 4.335938 -4.140625 4.515625 -3.765625 C 4.703125 -3.390625 4.796875 -2.941406 4.796875 -2.421875 C 4.796875 -1.910156 4.703125 -1.46875 4.515625 -1.09375 C 4.335938 -0.71875 4.082031 -0.429688 3.75 -0.234375 C 3.414062 -0.0351562 3.019531 0.0625 2.5625 0.0625 Z M 2.5625 -0.734375 C 2.800781 -0.734375 3.007812 -0.789062 3.1875 -0.90625 C 3.363281 -1.019531 3.5 -1.195312 3.59375 -1.4375 C 3.6875 -1.6875 3.734375 -2.007812 3.734375 -2.40625 C 3.734375 -2.8125 3.679688 -3.140625 3.578125 -3.390625 C 3.484375 -3.648438 3.347656 -3.835938 3.171875 -3.953125 C 3.003906 -4.066406 2.800781 -4.125 2.5625 -4.125 C 2.332031 -4.125 2.128906 -4.066406 1.953125 -3.953125 C 1.773438 -3.835938 1.640625 -3.648438 1.546875 -3.390625 C 1.453125 -3.140625 1.40625 -2.8125 1.40625 -2.40625 C 1.40625 -2.007812 1.453125 -1.6875 1.546875 -1.4375 C 1.640625 -1.195312 1.773438 -1.019531 1.953125 -0.90625 C 2.128906 -0.789062 2.332031 -0.734375 2.5625 -0.734375 Z M 2.5625 -0.734375 "/></g></g><g style="fill:#ffffff;fill-opacity:1;"><g transform="translate(172.210459, 11.704272)"><path style="stroke:none" d="M 3.734375 -4.875 L 4.71875 -4.875 L 4.71875 0 L 3.84375 0 L 1.53125 -3.34375 L 1.53125 0 L 0.546875 0 L 0.546875 -4.875 L 1.515625 -4.875 L 3.734375 -1.640625 Z M 3.734375 -4.875 "/></g></g><g style="fill:#ffffff;fill-opacity:1;"><g transform="translate(177.471837, 11.704272)"><path style="stroke:none" d="M 2.375 0.0625 C 2.132812 0.0625 1.894531 0.0351562 1.65625 -0.015625 C 1.425781 -0.078125 1.21875 -0.171875 1.03125 -0.296875 C 0.84375 -0.421875 0.6875 -0.570312 0.5625 -0.75 C 0.4375 -0.9375 0.363281 -1.148438 0.34375 -1.390625 L 1.34375 -1.390625 C 1.375 -1.242188 1.4375 -1.117188 1.53125 -1.015625 C 1.625 -0.910156 1.742188 -0.832031 1.890625 -0.78125 C 2.035156 -0.726562 2.195312 -0.703125 2.375 -0.703125 C 2.550781 -0.703125 2.710938 -0.722656 2.859375 -0.765625 C 3.003906 -0.816406 3.125 -0.882812 3.21875 -0.96875 C 3.3125 -1.0625 3.359375 -1.175781 3.359375 -1.3125 C 3.359375 -1.4375 3.320312 -1.535156 3.25 -1.609375 C 3.175781 -1.691406 3.078125 -1.757812 2.953125 -1.8125 C 2.828125 -1.863281 2.6875 -1.90625 2.53125 -1.9375 L 1.6875 -2.109375 C 1.320312 -2.171875 1.03125 -2.3125 0.8125 -2.53125 C 0.59375 -2.757812 0.484375 -3.0625 0.484375 -3.4375 C 0.472656 -3.738281 0.550781 -4 0.71875 -4.21875 C 0.882812 -4.445312 1.109375 -4.617188 1.390625 -4.734375 C 1.679688 -4.859375 2 -4.921875 2.34375 -4.921875 C 2.769531 -4.921875 3.125 -4.851562 3.40625 -4.71875 C 3.695312 -4.59375 3.914062 -4.414062 4.0625 -4.1875 C 4.207031 -3.96875 4.285156 -3.722656 4.296875 -3.453125 L 3.3125 -3.453125 C 3.289062 -3.617188 3.238281 -3.753906 3.15625 -3.859375 C 3.070312 -3.960938 2.960938 -4.035156 2.828125 -4.078125 C 2.691406 -4.117188 2.535156 -4.140625 2.359375 -4.140625 C 2.234375 -4.140625 2.117188 -4.125 2.015625 -4.09375 C 1.910156 -4.070312 1.816406 -4.035156 1.734375 -3.984375 C 1.660156 -3.929688 1.601562 -3.867188 1.5625 -3.796875 C 1.53125 -3.722656 1.515625 -3.640625 1.515625 -3.546875 C 1.515625 -3.410156 1.5625 -3.296875 1.65625 -3.203125 C 1.75 -3.117188 1.921875 -3.050781 2.171875 -3 L 3.015625 -2.828125 C 3.316406 -2.765625 3.550781 -2.675781 3.71875 -2.5625 C 3.894531 -2.445312 4.023438 -2.316406 4.109375 -2.171875 C 4.203125 -2.023438 4.265625 -1.878906 4.296875 -1.734375 C 4.328125 -1.585938 4.34375 -1.453125 4.34375 -1.328125 C 4.34375 -1.054688 4.257812 -0.816406 4.09375 -0.609375 C 3.925781 -0.398438 3.695312 -0.234375 3.40625 -0.109375 C 3.113281 0.00390625 2.769531 0.0625 2.375 0.0625 Z M 2.375 0.0625 "/></g></g><g style="fill:#ffffff;fill-opacity:1;"><g transform="translate(182.137778, 11.704272)"><path style="stroke:none" d="M 0.546875 0 L 0.546875 -4.875 L 3.890625 -4.875 L 3.890625 -4.046875 L 1.53125 -4.046875 L 1.53125 -2.859375 L 3.578125 -2.859375 L 3.578125 -2.046875 L 1.53125 -2.046875 L 1.53125 -0.84375 L 3.921875 -0.828125 L 3.921875 0 Z M 0.546875 0 "/></g></g></g></svg>