<svg xmlns="http://www.w3.org/2000/svg" xmlns:xlink="http://www.w3.org/1999/xlink" width="310" zoomAndPan="magnify" viewBox="0 0 232.5 131.249995" height="175" preserveAspectRatio="xMidYMid meet" version="1.2"><defs><clipPath id="4819645473"><path d="M 79 61.417969 L 146 61.417969 L 146 129 L 79 129 Z M 79 61.417969 "/></clipPath><clipPath id="fa61ec1212"><path d="M 103 121 L 122 121 L 122 130.503906 L 103 130.503906 Z M 103 121 "/></clipPath><clipPath id="6ef30c9b46"><path d="M 78.867188 61.417969 L 146 61.417969 L 146 130.503906 L 78.867188 130.503906 Z M 78.867188 61.417969 "/></clipPath></defs><g id="34829b5739"><g clip-rule="nonzero" clip-path="url(#4819645473)"><path style=" stroke:none;fill-rule:evenodd;fill:#808080;fill-opacity:1;" d="M 114.78125 61.875 L 109.890625 61.875 C 108.453125 61.875 107.285156 63.046875 107.285156 64.476562 L 107.285156 66.394531 C 107.285156 67.59375 106.511719 68.597656 105.363281 68.917969 C 103.0625 69.539062 100.894531 70.4375 98.882812 71.609375 C 97.851562 72.203125 96.582031 72.035156 95.75 71.199219 L 94.402344 69.84375 C 93.386719 68.828125 91.734375 68.828125 90.722656 69.84375 L 87.269531 73.3125 C 86.253906 74.332031 86.253906 75.988281 87.269531 77.007812 L 88.617188 78.363281 C 89.464844 79.214844 89.632812 80.476562 89.027344 81.507812 C 87.859375 83.53125 86.953125 85.707031 86.34375 88.019531 C 86.042969 89.175781 85.027344 89.949219 83.832031 89.949219 L 81.925781 89.949219 C 80.484375 89.949219 79.335938 91.121094 79.335938 92.566406 L 79.335938 97.476562 C 79.335938 98.90625 80.5 100.078125 81.925781 100.078125 L 83.832031 100.078125 C 85.027344 100.078125 86.027344 100.851562 86.34375 102.007812 C 86.964844 104.304688 87.859375 106.496094 89.027344 108.519531 C 89.617188 109.550781 89.449219 110.8125 88.617188 111.667969 L 87.269531 113.019531 C 86.253906 114.039062 86.253906 115.695312 87.269531 116.714844 L 90.722656 120.183594 C 91.734375 121.203125 93.386719 121.203125 94.402344 120.183594 L 95.75 118.828125 C 96.597656 117.976562 97.851562 117.808594 98.882812 118.417969 C 100.894531 119.589844 103.0625 120.5 105.347656 121.109375 C 106.5 121.414062 107.269531 122.433594 107.269531 123.632812 L 107.269531 125.550781 C 107.269531 126.980469 108.4375 128.152344 109.875 128.152344 L 114.765625 128.152344 C 116.1875 128.152344 117.355469 126.980469 117.355469 125.550781 L 117.355469 123.632812 C 117.355469 122.433594 118.125 121.429688 119.277344 121.109375 C 121.5625 120.488281 123.742188 119.574219 125.757812 118.417969 C 126.789062 117.824219 128.042969 117.976562 128.890625 118.828125 L 130.238281 120.183594 C 131.253906 121.203125 132.90625 121.203125 133.917969 120.183594 L 137.371094 116.714844 C 138.386719 115.695312 138.386719 114.039062 137.371094 113.019531 L 136.023438 111.667969 C 135.175781 110.8125 135.007812 109.550781 135.613281 108.519531 C 136.78125 106.496094 137.6875 104.320312 138.292969 102.007812 C 138.597656 100.851562 139.613281 100.078125 140.808594 100.078125 L 142.714844 100.078125 C 144.140625 100.078125 145.304688 98.90625 145.304688 97.476562 L 145.304688 92.566406 C 145.304688 91.121094 144.140625 89.949219 142.714844 89.949219 L 140.808594 89.949219 C 139.613281 89.949219 138.613281 89.175781 138.292969 88.019531 C 137.671875 85.707031 136.765625 83.53125 135.613281 81.507812 C 135.023438 80.476562 135.175781 79.199219 136.023438 78.363281 L 137.371094 77.007812 C 138.386719 75.988281 138.386719 74.332031 137.371094 73.3125 L 133.917969 69.84375 C 132.90625 68.828125 131.253906 68.828125 130.238281 69.84375 L 128.890625 71.199219 C 128.042969 72.050781 126.789062 72.21875 125.757812 71.609375 C 123.742188 70.4375 121.578125 69.527344 119.277344 68.917969 C 118.125 68.613281 117.355469 67.59375 117.355469 66.394531 L 117.355469 64.492188 C 117.371094 63.046875 116.203125 61.875 114.78125 61.875 Z M 114.78125 61.875 "/></g><path style=" stroke:none;fill-rule:evenodd;fill:#b3b3b3;fill-opacity:1;" d="M 112.375 74.316406 C 100.941406 74.316406 91.675781 83.625 91.675781 95.105469 C 91.675781 106.585938 100.941406 115.894531 112.375 115.894531 C 123.804688 115.894531 133.070312 106.585938 133.070312 95.105469 C 133.070312 83.625 123.804688 74.316406 112.375 74.316406 Z M 112.375 74.316406 "/><path style=" stroke:none;fill-rule:evenodd;fill:#e6e6e6;fill-opacity:1;" d="M 93.402344 86.785156 C 92.296875 89.339844 91.675781 92.15625 91.675781 95.121094 C 91.675781 106.601562 100.941406 115.910156 112.375 115.910156 C 118.746094 115.910156 124.441406 113.019531 128.242188 108.472656 C 129.347656 105.917969 129.96875 103.105469 129.96875 100.140625 C 129.96875 88.65625 120.699219 79.351562 109.269531 79.351562 C 102.894531 79.351562 97.203125 82.238281 93.402344 86.785156 Z M 93.402344 86.785156 "/><path style=" stroke:none;fill-rule:evenodd;fill:#ffffff;fill-opacity:1;" d="M 101.410156 86.832031 C 99.351562 86.832031 97.671875 88.519531 97.671875 90.589844 C 97.671875 92.65625 99.351562 94.34375 101.410156 94.34375 C 103.46875 94.34375 105.152344 92.671875 105.152344 90.589844 C 105.152344 88.519531 103.46875 86.832031 101.410156 86.832031 Z M 101.410156 86.832031 "/><path style=" stroke:none;fill-rule:evenodd;fill:#b3b3b3;fill-opacity:1;" d="M 94.21875 74.695312 C 93.402344 74.695312 92.75 75.351562 92.75 76.171875 C 92.75 76.992188 93.402344 77.648438 94.21875 77.648438 C 95.035156 77.648438 95.6875 76.992188 95.6875 76.171875 C 95.6875 75.367188 95.035156 74.695312 94.21875 74.695312 Z M 94.21875 74.695312 "/><path style=" stroke:none;fill-rule:evenodd;fill:#dd6e42;fill-opacity:1;" d="M 103.015625 97.796875 C 96.21875 97.019531 98.140625 100.746094 92.933594 100.152344 C 90.144531 99.835938 87.949219 97.828125 87.269531 95.273438 L 92.265625 95.835938 C 94.355469 96.078125 94.914062 91.167969 92.824219 90.921875 L 87.828125 90.359375 C 89.070312 88.019531 91.660156 86.558594 94.445312 86.878906 C 99.214844 87.425781 97.050781 90.679688 105.53125 91.652344 L 117.234375 92.992188 C 125.710938 93.964844 124.320312 90.300781 129.105469 90.847656 C 131.890625 91.167969 134.085938 93.171875 134.765625 95.726562 L 129.738281 95.152344 C 127.652344 94.90625 127.089844 99.820312 129.179688 100.046875 L 134.207031 100.625 C 132.964844 102.96875 130.375 104.425781 127.589844 104.109375 C 122.925781 103.574219 124.878906 100.457031 117.128906 99.410156 C 111.644531 98.679688 108.511719 98.421875 103.015625 97.796875 Z M 103.015625 97.796875 "/><path style=" stroke:none;fill-rule:evenodd;fill:#fbb13c;fill-opacity:1;" d="M 94.128906 93.28125 C 94.171875 92.140625 93.78125 91.042969 92.8125 90.9375 L 87.8125 90.375 C 89.054688 88.035156 91.644531 86.574219 94.429688 86.894531 C 99.199219 87.441406 97.035156 90.695312 105.515625 91.667969 L 117.21875 93.007812 C 125.695312 93.980469 124.304688 90.316406 129.089844 90.863281 C 131.875 91.179688 134.070312 93.1875 134.75 95.742188 L 129.726562 95.164062 C 128.753906 95.058594 128.121094 96.046875 127.90625 97.171875 C 125.453125 97.171875 122.941406 97.128906 120.367188 97.007812 C 110.3125 96.503906 101.152344 95.152344 94.128906 93.28125 Z M 94.128906 93.28125 "/><path style=" stroke:none;fill-rule:evenodd;fill:#e18a7a;fill-opacity:1;" d="M 117.613281 90.316406 C 117.371094 87.699219 121.820312 86.742188 121.820312 91.195312 C 121.820312 94.890625 122.53125 103.726562 121.351562 106.464844 C 120.65625 108.109375 120.171875 109.855469 119.929688 111.636719 L 104.652344 111.636719 C 104.652344 111.527344 104.652344 111.4375 104.652344 111.332031 C 104.652344 104.898438 100.5625 105.550781 100.5625 97.71875 C 104.679688 98.375 103.605469 92.519531 103.605469 89.3125 C 103.605469 86.878906 108.269531 87.105469 108.269531 89.523438 C 108.269531 87.089844 112.933594 87.320312 112.933594 89.738281 C 112.949219 87.332031 117.613281 87.226562 117.613281 90.316406 Z M 117.613281 90.316406 "/><path style=" stroke:none;fill-rule:evenodd;fill:#eeb9a2;fill-opacity:1;" d="M 104.636719 110.617188 C 104.347656 104.929688 100.578125 105.25 100.578125 97.71875 C 104.695312 98.375 103.621094 92.519531 103.621094 89.3125 C 103.621094 86.878906 108.285156 87.105469 108.285156 89.523438 C 108.285156 87.089844 112.949219 87.320312 112.949219 89.738281 C 112.949219 87.851562 115.871094 87.378906 117.082031 88.792969 C 117.1875 89.675781 117.25 90.589844 117.25 91.515625 C 117.265625 100.335938 111.996094 107.847656 104.636719 110.617188 Z M 104.636719 110.617188 "/><path style=" stroke:none;fill-rule:evenodd;fill:#224465;fill-opacity:1;" d="M 101.578125 118.980469 L 101.578125 114.085938 C 101.578125 112.746094 102.667969 111.636719 104.015625 111.636719 L 120.441406 111.636719 C 121.789062 111.636719 122.882812 112.746094 122.882812 114.085938 L 122.882812 118.980469 C 122.882812 120.320312 121.789062 121.429688 120.441406 121.429688 L 104.015625 121.429688 C 102.683594 121.429688 101.578125 120.320312 101.578125 118.980469 Z M 101.578125 118.980469 "/><path style=" stroke:none;fill-rule:evenodd;fill:#336699;fill-opacity:1;" d="M 101.578125 118.980469 L 101.578125 114.085938 C 101.578125 112.746094 102.667969 111.636719 104.015625 111.636719 L 112.039062 111.636719 C 112.070312 111.953125 112.085938 112.289062 112.085938 112.625 C 112.085938 116.378906 110.164062 119.664062 107.316406 121.445312 L 104.03125 121.445312 C 102.683594 121.429688 101.578125 120.320312 101.578125 118.980469 Z M 101.578125 118.980469 "/><path style=" stroke:none;fill-rule:evenodd;fill:#6a8fb4;fill-opacity:1;" d="M 104.953125 117.339844 L 104.953125 115.40625 C 104.953125 115.011719 105.289062 114.675781 105.679688 114.675781 L 109.253906 114.675781 C 109.648438 114.675781 109.980469 115.011719 109.980469 115.40625 L 109.980469 117.339844 C 109.980469 117.734375 109.648438 118.070312 109.253906 118.070312 L 105.679688 118.070312 C 105.273438 118.070312 104.953125 117.734375 104.953125 117.339844 Z M 104.953125 117.339844 "/><path style=" stroke:none;fill-rule:evenodd;fill:#6a8fb4;fill-opacity:1;" d="M 111.359375 117.445312 L 111.359375 115.300781 C 111.359375 114.949219 111.644531 114.675781 111.980469 114.675781 L 113.613281 114.675781 C 113.964844 114.675781 114.234375 114.949219 114.234375 115.300781 L 114.234375 117.445312 C 114.234375 117.78125 113.964844 118.070312 113.613281 118.070312 L 111.964844 118.070312 C 111.632812 118.070312 111.359375 117.78125 111.359375 117.445312 Z M 111.359375 117.445312 "/><g clip-rule="nonzero" clip-path="url(#fa61ec1212)"><path style=" stroke:none;fill-rule:evenodd;fill:#ff6666;fill-opacity:1;" d="M 103.320312 121.324219 L 121.15625 121.324219 L 121.15625 128.152344 C 121.15625 129.351562 120.1875 130.324219 118.988281 130.324219 L 105.46875 130.324219 C 104.289062 130.324219 103.320312 129.351562 103.320312 128.152344 Z M 103.320312 121.324219 "/></g><path style=" stroke:none;fill-rule:evenodd;fill:#eeb9a2;fill-opacity:1;" d="M 81.96875 70.011719 C 83.195312 70.011719 84.195312 71 84.195312 72.246094 C 84.195312 73.480469 83.195312 74.484375 81.96875 74.484375 C 80.742188 74.484375 79.746094 73.480469 79.746094 72.246094 C 79.746094 71.015625 80.742188 70.011719 81.96875 70.011719 Z M 81.96875 70.011719 "/><path style=" stroke:none;fill-rule:evenodd;fill:#eeb9a2;fill-opacity:1;" d="M 81.878906 77.875 C 82.46875 77.875 82.953125 78.347656 82.953125 78.9375 C 82.953125 79.53125 82.484375 80.019531 81.878906 80.019531 C 81.289062 80.019531 80.804688 79.546875 80.804688 78.9375 C 80.804688 78.363281 81.289062 77.875 81.878906 77.875 Z M 81.878906 77.875 "/><path style=" stroke:none;fill-rule:evenodd;fill:#eeb9a2;fill-opacity:1;" d="M 143.535156 103.820312 C 144.609375 103.820312 145.472656 104.699219 145.472656 105.765625 C 145.472656 106.828125 144.59375 107.710938 143.535156 107.710938 C 142.457031 107.710938 141.59375 106.828125 141.59375 105.765625 C 141.59375 104.699219 142.457031 103.820312 143.535156 103.820312 Z M 143.535156 103.820312 "/><path style=" stroke:none;fill-rule:evenodd;fill:#eeb9a2;fill-opacity:1;" d="M 141.082031 109.824219 C 141.671875 109.824219 142.15625 110.296875 142.15625 110.90625 C 142.15625 111.5 141.6875 111.96875 141.082031 111.96875 C 140.488281 111.96875 140.003906 111.5 140.003906 110.90625 C 140.003906 110.296875 140.488281 109.824219 141.082031 109.824219 Z M 141.082031 109.824219 "/><path style=" stroke:none;fill-rule:evenodd;fill:#eeb9a2;fill-opacity:1;" d="M 94.050781 125.171875 C 94.644531 125.171875 95.113281 125.640625 95.113281 126.25 C 95.113281 126.84375 94.644531 127.328125 94.050781 127.328125 C 93.460938 127.328125 92.976562 126.84375 92.976562 126.25 C 92.992188 125.640625 93.460938 125.171875 94.050781 125.171875 Z M 94.050781 125.171875 "/><g clip-rule="nonzero" clip-path="url(#6ef30c9b46)"><path style=" stroke:none;fill-rule:nonzero;fill:#010101;fill-opacity:1;" d="M 94.050781 124.714844 C 94.460938 124.714844 94.855469 124.882812 95.128906 125.15625 C 96.082031 126.113281 95.398438 127.753906 94.050781 127.753906 C 92.703125 127.753906 92.023438 126.113281 92.976562 125.15625 C 93.25 124.882812 93.644531 124.714844 94.050781 124.714844 Z M 94.492188 125.808594 C 93.917969 125.246094 93.054688 126.113281 93.613281 126.691406 C 94.203125 127.253906 95.066406 126.386719 94.492188 125.808594 Z M 141.082031 109.371094 C 141.503906 109.371094 141.882812 109.535156 142.15625 109.8125 C 143.109375 110.769531 142.429688 112.410156 141.082031 112.410156 C 139.734375 112.410156 139.050781 110.769531 140.003906 109.8125 C 140.277344 109.535156 140.65625 109.371094 141.082031 109.371094 Z M 141.503906 110.449219 C 140.945312 109.886719 140.066406 110.753906 140.640625 111.332031 C 141.21875 111.894531 142.078125 111.027344 141.503906 110.449219 Z M 143.535156 103.363281 C 145.667969 103.363281 146.726562 105.964844 145.230469 107.46875 C 143.730469 108.988281 141.140625 107.910156 141.140625 105.765625 C 141.125 104.441406 142.199219 103.363281 143.535156 103.363281 Z M 144.578125 104.714844 C 143.640625 103.773438 142.035156 104.441406 142.035156 105.765625 C 142.035156 107.105469 143.640625 107.773438 144.578125 106.828125 C 145.167969 106.253906 145.167969 105.292969 144.578125 104.714844 Z M 81.878906 77.417969 C 82.304688 77.417969 82.679688 77.585938 82.953125 77.859375 C 83.90625 78.816406 83.226562 80.460938 81.878906 80.460938 C 80.53125 80.460938 79.851562 78.800781 80.804688 77.859375 C 81.078125 77.585938 81.457031 77.417969 81.878906 77.417969 Z M 82.316406 78.511719 C 81.757812 77.9375 80.878906 78.816406 81.457031 79.378906 C 82.015625 79.957031 82.878906 79.089844 82.316406 78.511719 Z M 81.96875 69.554688 C 84.347656 69.554688 85.542969 72.445312 83.863281 74.148438 C 82.183594 75.851562 79.289062 74.636719 79.289062 72.246094 C 79.289062 70.757812 80.484375 69.554688 81.96875 69.554688 Z M 83.210938 70.984375 C 82.105469 69.875 80.199219 70.667969 80.199219 72.234375 C 80.199219 73.800781 82.105469 74.605469 83.210938 73.496094 C 83.90625 72.8125 83.90625 71.683594 83.210938 70.984375 Z M 103.378906 120.867188 L 121.109375 120.867188 C 121.398438 120.761719 121.65625 120.59375 121.867188 120.394531 C 122.230469 120.03125 122.441406 119.542969 122.441406 118.996094 L 122.441406 114.097656 C 122.441406 113.003906 121.546875 112.105469 120.457031 112.105469 C 114.976562 112.105469 109.496094 112.105469 104.03125 112.105469 C 102.941406 112.105469 102.046875 113.003906 102.046875 114.097656 L 102.046875 118.996094 C 102.03125 119.832031 102.59375 120.59375 103.378906 120.867188 Z M 121.609375 121.640625 L 121.609375 128.152344 C 121.609375 129.597656 120.429688 130.765625 118.988281 130.765625 L 105.46875 130.765625 C 104.03125 130.765625 102.863281 129.597656 102.863281 128.152344 L 102.863281 121.640625 C 101.789062 121.171875 101.441406 120.242188 101.410156 120.210938 C 100.972656 120.03125 100.53125 119.816406 100.109375 119.589844 C 99.609375 119.347656 99.125 119.085938 98.671875 118.8125 C 97.824219 118.3125 96.777344 118.449219 96.082031 119.164062 L 94.734375 120.515625 C 93.539062 121.71875 91.613281 121.71875 90.417969 120.515625 L 86.964844 117.050781 C 86.375 116.457031 86.074219 115.664062 86.074219 114.875 C 86.074219 114.085938 86.375 113.308594 86.964844 112.699219 L 88.3125 111.347656 C 89.011719 110.648438 89.148438 109.597656 88.648438 108.746094 C 88.054688 107.710938 87.527344 106.632812 87.074219 105.523438 C 86.648438 104.535156 86.210938 103.179688 85.921875 102.132812 C 85.664062 101.171875 84.847656 100.535156 83.847656 100.535156 L 81.925781 100.535156 C 80.242188 100.535156 78.867188 99.164062 78.867188 97.460938 L 78.867188 92.550781 C 78.867188 90.863281 80.230469 89.476562 81.925781 89.476562 L 83.832031 89.476562 C 84.816406 89.476562 85.648438 88.839844 85.90625 87.882812 C 86.527344 85.554688 87.449219 83.347656 88.632812 81.265625 C 89.132812 80.414062 88.996094 79.363281 88.300781 78.664062 L 86.953125 77.3125 C 85.753906 76.109375 85.753906 74.179688 86.953125 72.976562 L 90.417969 69.496094 C 91.613281 68.292969 93.539062 68.292969 94.734375 69.496094 L 96.082031 70.847656 C 96.777344 71.546875 97.824219 71.683594 98.671875 71.183594 C 100.730469 69.980469 102.941406 69.070312 105.257812 68.445312 C 106.210938 68.1875 106.847656 67.351562 106.847656 66.363281 L 106.847656 64.492188 C 106.847656 62.804688 108.210938 61.421875 109.90625 61.421875 L 114.796875 61.421875 C 116.476562 61.421875 117.855469 62.789062 117.855469 64.492188 L 117.855469 66.40625 C 117.855469 67.398438 118.488281 68.234375 119.445312 68.492188 C 121.761719 69.113281 123.972656 70.027344 126.03125 71.230469 C 126.878906 71.730469 127.921875 71.59375 128.621094 70.894531 L 129.96875 69.539062 C 131.164062 68.339844 133.101562 68.339844 134.28125 69.539062 L 137.734375 73.023438 C 138.898438 74.132812 138.945312 76.140625 137.734375 77.359375 L 136.386719 78.710938 C 135.691406 79.441406 135.539062 80.445312 136.054688 81.3125 C 137.25 83.378906 138.160156 85.601562 138.777344 87.925781 C 139.035156 88.886719 139.855469 89.523438 140.851562 89.523438 L 142.761719 89.523438 C 144.441406 89.523438 145.820312 90.890625 145.820312 92.597656 L 145.820312 97.507812 C 145.820312 99.195312 144.441406 100.578125 142.761719 100.578125 L 140.851562 100.578125 C 139.871094 100.578125 139.035156 101.21875 138.777344 102.175781 C 138.160156 104.503906 137.25 106.722656 136.054688 108.792969 C 135.554688 109.644531 135.691406 110.691406 136.386719 111.390625 L 137.734375 112.746094 C 138.929688 113.945312 138.929688 115.894531 137.734375 117.078125 L 134.28125 120.546875 C 133.722656 121.140625 132.875 121.445312 132.117188 121.445312 C 131.328125 121.445312 130.558594 121.140625 129.953125 120.546875 L 128.605469 119.195312 C 127.90625 118.496094 126.863281 118.355469 126.015625 118.84375 C 125.515625 119.132812 125 119.40625 124.472656 119.679688 C 124 119.921875 123.515625 120.136719 123.03125 120.351562 C 122.988281 120.351562 122.640625 121.1875 121.609375 121.640625 Z M 103.773438 121.871094 L 103.773438 128.136719 C 103.773438 129.078125 104.546875 129.855469 105.46875 129.855469 L 118.988281 129.855469 C 119.929688 129.855469 120.699219 129.078125 120.699219 128.136719 L 120.699219 121.871094 Z M 101.125 118.980469 L 101.125 114.085938 C 101.125 113.78125 101.167969 113.476562 101.257812 113.203125 C 96.640625 110.328125 93.25 105.75 91.886719 100.441406 C 89.417969 99.804688 87.480469 97.859375 86.832031 95.410156 C 86.753906 95.105469 86.980469 94.785156 87.34375 94.847656 L 91.234375 95.289062 C 91.222656 93.996094 91.34375 92.550781 91.585938 91.273438 L 87.785156 90.832031 C 87.464844 90.800781 87.269531 90.4375 87.449219 90.132812 C 88.648438 88.003906 90.675781 86.617188 93.082031 86.421875 C 96.476562 78.847656 103.984375 73.875 112.386719 73.875 C 117.777344 73.875 122.699219 75.898438 126.425781 79.226562 C 130.164062 82.558594 132.722656 87.210938 133.375 92.457031 C 134.238281 93.324219 134.871094 94.421875 135.191406 95.621094 C 135.265625 95.925781 135.039062 96.246094 134.675781 96.183594 L 133.511719 96.046875 C 133.449219 97.402344 133.269531 98.722656 132.964844 100.03125 L 134.25 100.183594 C 134.570312 100.214844 134.765625 100.578125 134.585938 100.882812 C 133.917969 102.117188 132.917969 103.105469 131.722656 103.757812 C 130.816406 105.796875 129.617188 107.652344 128.148438 109.277344 C 126.742188 110.875 125.089844 112.242188 123.257812 113.339844 C 123.320312 113.582031 123.351562 113.824219 123.351562 114.085938 L 123.351562 118.980469 C 123.351562 119.042969 123.351562 119.117188 123.351562 119.179688 L 125.5625 118.039062 C 126.773438 117.339844 128.257812 117.535156 129.242188 118.523438 L 130.585938 119.878906 C 130.996094 120.304688 131.558594 120.515625 132.101562 120.515625 C 132.648438 120.515625 133.207031 120.304688 133.617188 119.894531 L 137.066406 116.425781 C 137.902344 115.589844 137.902344 114.222656 137.066406 113.382812 L 135.71875 112.03125 C 134.738281 111.042969 134.539062 109.535156 135.234375 108.335938 C 136.386719 106.328125 137.28125 104.183594 137.871094 101.949219 C 138.234375 100.59375 139.414062 99.667969 140.824219 99.667969 L 142.730469 99.667969 C 143.910156 99.667969 144.867188 98.710938 144.867188 97.523438 L 144.867188 92.609375 C 144.867188 91.425781 143.910156 90.453125 142.730469 90.453125 L 140.824219 90.453125 C 139.429688 90.453125 138.234375 89.539062 137.871094 88.183594 C 137.265625 85.933594 136.386719 83.789062 135.234375 81.796875 C 134.539062 80.582031 134.738281 79.089844 135.71875 78.101562 L 137.066406 76.75 C 137.902344 75.914062 137.902344 74.542969 137.066406 73.707031 L 133.617188 70.242188 C 132.785156 69.402344 131.421875 69.402344 130.585938 70.242188 L 129.242188 71.59375 C 128.257812 72.582031 126.757812 72.78125 125.5625 72.082031 C 123.5625 70.925781 121.425781 70.027344 119.203125 69.433594 C 117.855469 69.070312 116.929688 67.867188 116.929688 66.46875 L 116.929688 64.492188 C 116.929688 63.898438 116.6875 63.351562 116.308594 62.972656 C 115.917969 62.574219 115.386719 62.332031 114.796875 62.332031 L 109.90625 62.332031 C 108.722656 62.332031 107.753906 63.304688 107.753906 64.492188 L 107.753906 66.40625 C 107.753906 67.808594 106.847656 69.007812 105.5 69.375 C 103.257812 69.964844 101.125 70.863281 99.140625 72.019531 C 97.929688 72.71875 96.445312 72.523438 95.460938 71.53125 L 94.113281 70.179688 C 93.28125 69.34375 91.917969 69.34375 91.085938 70.179688 L 87.632812 73.648438 C 86.800781 74.484375 86.800781 75.851562 87.632812 76.6875 L 88.980469 78.042969 C 89.964844 79.03125 90.160156 80.535156 89.464844 81.738281 C 88.3125 83.746094 87.421875 85.890625 86.832031 88.125 C 86.464844 89.476562 85.269531 90.390625 83.878906 90.390625 L 81.925781 90.390625 C 80.742188 90.390625 79.773438 91.363281 79.773438 92.550781 L 79.773438 97.460938 C 79.773438 98.648438 80.742188 99.605469 81.925781 99.605469 L 83.832031 99.605469 C 85.226562 99.605469 86.421875 100.519531 86.785156 101.886719 C 87.085938 103.011719 87.449219 104.109375 87.890625 105.171875 C 88.328125 106.253906 88.84375 107.285156 89.417969 108.289062 C 90.117188 109.507812 89.917969 110.996094 88.933594 111.984375 L 87.585938 113.339844 C 87.179688 113.75 86.964844 114.3125 86.964844 114.859375 C 86.964844 115.40625 87.179688 115.96875 87.585938 116.378906 L 91.039062 119.847656 C 91.871094 120.683594 93.234375 120.683594 94.066406 119.847656 L 95.414062 118.496094 C 96.398438 117.503906 97.898438 117.308594 99.09375 118.007812 L 101.109375 119.070312 C 101.125 119.058594 101.125 119.011719 101.125 118.980469 Z M 101.683594 112.378906 C 102.214844 111.652344 103.078125 111.179688 104.03125 111.179688 L 104.210938 111.179688 C 104.152344 105.21875 100.304688 105.613281 100.140625 98.222656 C 96.945312 98.664062 97.308594 101.128906 92.902344 100.609375 C 94.25 105.507812 97.414062 109.703125 101.683594 112.378906 Z M 120.472656 111.179688 C 121.472656 111.179688 122.367188 111.710938 122.882812 112.503906 C 126.121094 110.527344 128.742188 107.683594 130.453125 104.273438 C 129.542969 104.5625 128.542969 104.671875 127.53125 104.550781 C 124.5 104.199219 124.136719 102.890625 122.472656 101.660156 C 122.410156 103.757812 122.230469 105.597656 121.777344 106.632812 C 121.15625 108.109375 120.730469 109.613281 120.472656 111.179688 Z M 117.140625 90.039062 C 117.140625 90.027344 117.140625 90.011719 117.140625 89.996094 C 117.035156 89.25 116.582031 88.777344 116.007812 88.566406 C 114.902344 88.171875 113.417969 88.566406 113.417969 89.722656 L 113.523438 92.609375 C 113.539062 93.203125 112.644531 93.234375 112.617188 92.640625 L 112.507812 89.722656 C 112.507812 88.472656 110.796875 88.003906 109.707031 88.351562 C 109.164062 88.519531 108.753906 88.898438 108.753906 89.507812 L 109.027344 92.367188 C 109.085938 92.960938 108.179688 93.050781 108.117188 92.445312 L 107.847656 89.507812 C 107.847656 87.683594 104.089844 87.472656 104.089844 89.296875 C 104.089844 92.292969 105.152344 98.40625 101.046875 98.207031 C 101.214844 105.292969 105.058594 104.851562 105.121094 111.164062 L 119.566406 111.164062 C 119.835938 109.492188 120.292969 107.832031 120.957031 106.28125 C 122.078125 103.652344 121.382812 94.207031 121.382812 91.195312 C 121.382812 87.410156 118.035156 88.335938 118.066406 90.054688 C 118.082031 90.375 118.113281 90.207031 118.050781 90.496094 L 118.003906 92.976562 C 117.992188 93.570312 117.097656 93.554688 117.097656 92.960938 Z M 117.597656 88.6875 C 118.867188 86.90625 122.289062 87.183594 122.289062 91.179688 C 122.289062 91.5625 122.304688 91.988281 122.304688 92.445312 C 125.210938 91.789062 125.53125 89.964844 129.148438 90.375 C 130.332031 90.511719 131.40625 90.9375 132.328125 91.5625 C 130.648438 81.921875 122.273438 74.773438 112.386719 74.773438 C 104.484375 74.773438 97.414062 79.351562 94.082031 86.390625 C 96.398438 86.527344 97.398438 87.347656 98.441406 88.351562 C 99.351562 89.21875 100.382812 90.191406 103.210938 90.816406 C 103.183594 90.253906 103.167969 89.738281 103.167969 89.296875 C 103.167969 86.769531 106.96875 86.496094 108.300781 88.199219 C 109.375 86.953125 111.933594 87.105469 112.964844 88.414062 C 114.023438 87.136719 116.550781 87.195312 117.597656 88.6875 Z M 122.320312 93.386719 C 122.398438 95.726562 122.503906 98.132812 122.488281 100.59375 C 124.59375 101.886719 124.714844 103.316406 127.636719 103.652344 C 129.9375 103.910156 132.148438 102.875 133.449219 100.992188 L 129.132812 100.503906 C 127.332031 100.289062 127.121094 97.78125 127.710938 96.261719 C 128.089844 95.289062 128.800781 94.574219 129.785156 94.695312 L 134.101562 95.179688 C 133.269531 93.050781 131.328125 91.546875 129.042969 91.289062 C 125.726562 90.921875 125.574219 92.71875 122.320312 93.386719 Z M 100.503906 97.265625 C 100.746094 97.21875 101.59375 97.25 101.667969 97.25 C 102.59375 97.007812 103 96.140625 103.183594 95.027344 C 103.332031 94.054688 103.320312 92.882812 103.273438 91.773438 C 97.203125 90.527344 98.488281 87.820312 94.402344 87.347656 C 92.097656 87.089844 89.886719 88.125 88.585938 90.011719 L 92.871094 90.496094 C 94.671875 90.710938 94.886719 93.21875 94.292969 94.738281 C 93.917969 95.714844 93.203125 96.429688 92.21875 96.304688 L 87.921875 95.820312 C 88.753906 97.933594 90.691406 99.453125 92.976562 99.710938 C 97.203125 100.183594 96.414062 97.582031 100.503906 97.265625 Z M 92.128906 95.363281 L 92.3125 95.378906 C 93.808594 95.546875 94.25 91.546875 92.765625 91.378906 L 92.476562 91.347656 C 92.21875 92.734375 92.128906 93.949219 92.128906 95.363281 Z M 132.617188 95.941406 L 129.679688 95.605469 C 128.179688 95.441406 127.742188 99.4375 129.226562 99.605469 L 132.054688 99.925781 C 132.375 98.617188 132.554688 97.28125 132.617188 95.941406 Z M 132.617188 95.941406 "/></g><g style="fill:#ffffff;fill-opacity:1;"><g transform="translate(31.01223, 45.259362)"><path style="stroke:none" d="M 13.6875 0.390625 C 12.300781 0.390625 10.941406 0.21875 9.609375 -0.125 C 8.273438 -0.476562 7.054688 -1.003906 5.953125 -1.703125 C 4.859375 -2.398438 3.953125 -3.273438 3.234375 -4.328125 C 2.515625 -5.378906 2.082031 -6.609375 1.9375 -8.015625 L 7.75 -8.015625 C 7.9375 -7.160156 8.300781 -6.441406 8.84375 -5.859375 C 9.394531 -5.273438 10.082031 -4.828125 10.90625 -4.515625 C 11.726562 -4.210938 12.644531 -4.0625 13.65625 -4.0625 C 14.695312 -4.0625 15.644531 -4.1875 16.5 -4.4375 C 17.351562 -4.695312 18.035156 -5.085938 18.546875 -5.609375 C 19.066406 -6.140625 19.328125 -6.800781 19.328125 -7.59375 C 19.328125 -8.300781 19.113281 -8.878906 18.6875 -9.328125 C 18.269531 -9.785156 17.707031 -10.15625 17 -10.4375 C 16.289062 -10.726562 15.484375 -10.960938 14.578125 -11.140625 L 9.71875 -12.125 C 7.601562 -12.53125 5.921875 -13.375 4.671875 -14.65625 C 3.429688 -15.945312 2.789062 -17.664062 2.75 -19.8125 C 2.738281 -21.570312 3.207031 -23.09375 4.15625 -24.375 C 5.113281 -25.664062 6.410156 -26.660156 8.046875 -27.359375 C 9.679688 -28.054688 11.515625 -28.40625 13.546875 -28.40625 C 15.960938 -28.40625 17.992188 -28.023438 19.640625 -27.265625 C 21.296875 -26.515625 22.550781 -25.492188 23.40625 -24.203125 C 24.269531 -22.921875 24.71875 -21.488281 24.75 -19.90625 L 19.0625 -19.90625 C 18.957031 -20.894531 18.65625 -21.675781 18.15625 -22.25 C 17.664062 -22.832031 17.035156 -23.253906 16.265625 -23.515625 C 15.503906 -23.773438 14.628906 -23.90625 13.640625 -23.90625 C 12.890625 -23.90625 12.207031 -23.820312 11.59375 -23.65625 C 10.976562 -23.488281 10.457031 -23.25 10.03125 -22.9375 C 9.601562 -22.632812 9.269531 -22.273438 9.03125 -21.859375 C 8.800781 -21.453125 8.6875 -20.988281 8.6875 -20.46875 C 8.6875 -19.65625 8.957031 -18.992188 9.5 -18.484375 C 10.050781 -17.984375 11.070312 -17.570312 12.5625 -17.25 L 17.375 -16.265625 C 19.09375 -15.929688 20.457031 -15.429688 21.46875 -14.765625 C 22.488281 -14.109375 23.253906 -13.363281 23.765625 -12.53125 C 24.273438 -11.707031 24.609375 -10.863281 24.765625 -10 C 24.929688 -9.144531 25.015625 -8.351562 25.015625 -7.625 C 25.015625 -6.113281 24.535156 -4.753906 23.578125 -3.546875 C 22.628906 -2.335938 21.304688 -1.378906 19.609375 -0.671875 C 17.921875 0.0351562 15.945312 0.390625 13.6875 0.390625 Z M 13.6875 0.390625 "/></g></g><g style="fill:#ffffff;fill-opacity:1;"><g transform="translate(57.914805, 45.259362)"><path style="stroke:none" d="M 2.421875 6.25 L 2.421875 -20.0625 L 8.109375 -20.0625 L 8.125 -17.171875 C 8.425781 -17.648438 8.789062 -18.085938 9.21875 -18.484375 C 9.65625 -18.878906 10.140625 -19.222656 10.671875 -19.515625 C 11.203125 -19.816406 11.773438 -20.046875 12.390625 -20.203125 C 13.015625 -20.367188 13.671875 -20.453125 14.359375 -20.453125 C 15.847656 -20.453125 17.171875 -20.085938 18.328125 -19.359375 C 19.492188 -18.628906 20.410156 -17.503906 21.078125 -15.984375 C 21.742188 -14.460938 22.078125 -12.53125 22.078125 -10.1875 C 22.078125 -7.757812 21.71875 -5.765625 21 -4.203125 C 20.289062 -2.640625 19.304688 -1.484375 18.046875 -0.734375 C 16.796875 0.015625 15.378906 0.390625 13.796875 0.390625 C 13.148438 0.390625 12.539062 0.300781 11.96875 0.125 C 11.40625 -0.0507812 10.878906 -0.289062 10.390625 -0.59375 C 9.910156 -0.90625 9.476562 -1.265625 9.09375 -1.671875 C 8.707031 -2.085938 8.375 -2.535156 8.09375 -3.015625 L 8.09375 6.25 Z M 12.4375 -3.765625 C 13.664062 -3.765625 14.695312 -4.273438 15.53125 -5.296875 C 16.363281 -6.316406 16.78125 -7.9375 16.78125 -10.15625 C 16.78125 -12.09375 16.382812 -13.609375 15.59375 -14.703125 C 14.800781 -15.796875 13.75 -16.34375 12.4375 -16.34375 C 10.976562 -16.34375 9.890625 -15.75 9.171875 -14.5625 C 8.453125 -13.375 8.09375 -11.90625 8.09375 -10.15625 C 8.09375 -9.03125 8.25 -7.976562 8.5625 -7 C 8.882812 -6.03125 9.363281 -5.25 10 -4.65625 C 10.644531 -4.0625 11.457031 -3.765625 12.4375 -3.765625 Z M 12.4375 -3.765625 "/></g></g><g style="fill:#ffffff;fill-opacity:1;"><g transform="translate(81.32606, 45.259362)"><path style="stroke:none" d="M 8.828125 0.34375 C 7.359375 0.34375 6.1875 0.171875 5.3125 -0.171875 C 4.445312 -0.523438 3.804688 -0.988281 3.390625 -1.5625 C 2.984375 -2.132812 2.71875 -2.773438 2.59375 -3.484375 C 2.476562 -4.191406 2.421875 -4.90625 2.421875 -5.625 L 2.421875 -28.84375 L 7.96875 -28.84375 L 7.96875 -6.328125 C 7.96875 -5.585938 8.125 -4.988281 8.4375 -4.53125 C 8.757812 -4.070312 9.363281 -3.789062 10.25 -3.6875 L 11.203125 -3.625 L 11.203125 -0.140625 C 10.804688 -0.00390625 10.40625 0.109375 10 0.203125 C 9.601562 0.296875 9.210938 0.34375 8.828125 0.34375 Z M 8.828125 0.34375 "/></g></g><g style="fill:#ffffff;fill-opacity:1;"><g transform="translate(93.623169, 45.259362)"><path style="stroke:none" d="M 9.8125 0.390625 C 8.882812 0.390625 7.96875 0.25 7.0625 -0.03125 C 6.164062 -0.320312 5.347656 -0.742188 4.609375 -1.296875 C 3.878906 -1.859375 3.289062 -2.546875 2.84375 -3.359375 C 2.394531 -4.171875 2.171875 -5.113281 2.171875 -6.1875 L 2.171875 -20.0625 L 7.84375 -20.0625 L 7.84375 -6.90625 C 7.84375 -5.976562 8.144531 -5.210938 8.75 -4.609375 C 9.363281 -4.015625 10.257812 -3.71875 11.4375 -3.71875 C 12.539062 -3.71875 13.421875 -4.003906 14.078125 -4.578125 C 14.734375 -5.160156 15.0625 -5.96875 15.0625 -7 L 15.0625 -20.0625 L 20.671875 -20.0625 L 20.671875 0 L 16.390625 0 L 15.734375 -3.984375 C 15.503906 -2.804688 15.066406 -1.898438 14.421875 -1.265625 C 13.785156 -0.640625 13.054688 -0.207031 12.234375 0.03125 C 11.410156 0.269531 10.601562 0.390625 9.8125 0.390625 Z M 9.8125 0.390625 "/></g></g><g style="fill:#ffffff;fill-opacity:1;"><g transform="translate(116.568951, 45.259362)"><path style="stroke:none" d="M 2.421875 0 L 2.421875 -20.0625 L 8 -20.0625 L 8 -17.234375 C 8.3125 -17.722656 8.710938 -18.195312 9.203125 -18.65625 C 9.703125 -19.113281 10.332031 -19.488281 11.09375 -19.78125 C 11.863281 -20.082031 12.769531 -20.234375 13.8125 -20.234375 C 15.039062 -20.234375 16.1875 -19.992188 17.25 -19.515625 C 18.320312 -19.046875 19.1875 -18.296875 19.84375 -17.265625 C 20.507812 -16.234375 20.84375 -14.890625 20.84375 -13.234375 L 20.84375 0 L 15.171875 0 L 15.171875 -12.53125 C 15.171875 -13.625 14.847656 -14.441406 14.203125 -14.984375 C 13.554688 -15.523438 12.769531 -15.796875 11.84375 -15.796875 C 11.21875 -15.796875 10.613281 -15.6875 10.03125 -15.46875 C 9.457031 -15.25 8.988281 -14.914062 8.625 -14.46875 C 8.269531 -14.03125 8.09375 -13.488281 8.09375 -12.84375 L 8.09375 0 Z M 2.421875 0 "/></g></g><g style="fill:#ffffff;fill-opacity:1;"><g transform="translate(139.572879, 45.259362)"><path style="stroke:none" d="M 21.8125 0 L 16.171875 0 L 10.75 -8.65625 L 8.09375 -5.828125 L 8.09375 0 L 2.421875 0 L 2.421875 -28.84375 L 8.09375 -28.84375 L 8.09375 -11.734375 L 15.46875 -20.0625 L 21.5625 -20.0625 L 14.265625 -12.078125 Z M 21.8125 0 "/></g></g><g style="fill:#ffffff;fill-opacity:1;"><g transform="translate(162.111314, 45.259362)"><path style="stroke:none" d=""/></g></g><g style="fill:#ffffff;fill-opacity:1;"><g transform="translate(170.335313, 45.259362)"><path style="stroke:none" d="M 2.265625 -8.90625 L 13.953125 -13.28125 L 2.25 -17.78125 L 2.25 -22.640625 L 20.15625 -15.65625 L 20.15625 -10.96875 L 2.265625 -4.03125 Z M 2.265625 -8.90625 "/></g></g><g style="fill:#ffffff;fill-opacity:1;"><g transform="translate(192.757369, 45.259362)"><path style="stroke:none" d=""/></g></g></g></svg>